<svg xmlns="http://www.w3.org/2000/svg" direction="ltr" width="515" height="834" viewBox="22518.468813009215 15699.299401266842 515 834" stroke-linecap="round" stroke-linejoin="round" data-color-mode="light" class="tl-container tl-theme__force-sRGB tl-theme__light" style="background-color: transparent;"><defs/><g transform="matrix(1, 0, 0, 1, 22214.4688, 15608.2994)" opacity="1"><g data-lovart-layer-name="SVG 4"><g transform="scale(1, 1)"><g>
<g xmlns="http://www.w3.org/2000/svg" stroke-width="2.00" fill="none" stroke-linecap="butt">
<path stroke="#808080" vector-effect="non-scaling-stroke" d="   M 469.82 227.75   L 455.43 227.79   A 0.50 0.50 0.0 0 0 454.93 228.29   L 454.93 302.82   A 0.50 0.49 0.0 0 0 455.43 303.31   L 469.77 303.33"/>
<path stroke="#ddcfa3" vector-effect="non-scaling-stroke" d="   M 469.77 303.33   Q 469.80 303.35 469.83 303.36"/>
<path stroke="#808080" vector-effect="non-scaling-stroke" d="   M 469.83 303.36   L 469.81 318.09   A 0.56 0.56 0.0 0 1 469.25 318.65   L 455.31 318.65   A 0.34 0.34 0.0 0 0 454.97 318.99   L 454.97 363.57   A 0.45 0.45 0.0 0 0 455.42 364.02   L 469.99 364.09"/>
<path stroke="#90bfe9" vector-effect="non-scaling-stroke" d="   M 469.99 364.09   Q 469.90 364.08 469.80 364.07"/>
<path stroke="#808080" vector-effect="non-scaling-stroke" d="   M 469.80 364.07   L 469.79 530.40   A 0.47 0.47 0.0 0 1 469.32 530.87   L 455.60 530.87   A 0.56 0.56 0.0 0 0 455.04 531.43   L 455.04 545.66   A 0.51 0.51 0.0 0 1 454.53 546.17   L 425.37 546.17   A 0.28 0.28 0.0 0 0 425.09 546.45   L 425.09 561.35"/>
<path stroke="#f2e0ad" vector-effect="non-scaling-stroke" d="   M 425.09 561.35   Q 425.00 561.24 424.54 561.33"/>
<path stroke="#808080" vector-effect="non-scaling-stroke" d="   M 424.54 561.33   L 410.34 561.29   A 0.42 0.42 0.0 0 0 409.92 561.71   L 409.92 576.26   A 0.34 0.33 90.0 0 1 409.59 576.60   L 394.70 576.60   A 0.70 0.70 0.0 0 0 394.00 577.30   L 394.00 606.25   A 0.64 0.64 0.0 0 1 393.36 606.89   L 379.64 606.89   A 0.61 0.60 -90.0 0 0 379.04 607.50   L 379.04 651.57   A 0.55 0.54 90.0 0 1 378.50 652.12   L 364.55 652.12   A 0.53 0.52 -90.0 0 1 364.03 651.59   L 364.03 637.70   A 0.61 0.60 -0.0 0 0 363.42 637.10   L 334.66 637.10   A 0.63 0.63 0.0 0 0 334.03 637.73   L 334.03 651.10   A 0.97 0.97 0.0 0 1 333.06 652.07   L 319.57 652.07   A 0.66 0.65 -0.0 0 0 318.91 652.72   L 318.91 727.48   A 0.42 0.42 0.0 0 0 319.33 727.90   L 333.19 727.90   A 0.81 0.81 0.0 0 1 334.00 728.71   L 334.00 742.68   A 0.55 0.54 0.0 0 0 334.55 743.22   L 348.39 743.22   A 0.55 0.55 0.0 0 1 348.94 743.77   L 348.94 758.05   A 0.58 0.58 0.0 0 1 348.36 758.63   L 334.57 758.63   A 0.53 0.52 90.0 0 0 334.05 759.16   L 334.05 773.37   A 0.46 0.45 -90.0 0 1 333.60 773.83   L 319.47 773.83   A 0.56 0.56 0.0 0 0 318.91 774.39   L 318.91 803.70   A 0.42 0.42 0.0 0 0 319.33 804.12   L 333.57 804.12   A 0.56 0.56 0.0 0 1 334.13 804.68   L 334.13 818.66   A 0.57 0.56 -90.0 0 0 334.69 819.23   L 348.42 819.23   A 0.61 0.61 0.0 0 1 349.03 819.84   L 349.03 834.15   A 0.30 0.29 -90.0 0 0 349.32 834.45   L 439.39 834.45   A 0.47 0.47 0.0 0 1 439.86 834.92   L 439.86 864.28   A 0.46 0.46 0.0 0 1 439.40 864.74   L 425.36 864.74   A 0.54 0.54 0.0 0 0 424.82 865.28   L 424.82 879.46   A 0.58 0.58 0.0 0 1 424.24 880.04   L 410.36 880.04   A 0.45 0.44 -0.0 0 0 409.91 880.48   L 409.91 909.38   A 0.71 0.71 0.0 0 0 410.62 910.09   L 484.64 910.09   A 0.64 0.64 0.0 0 0 485.28 909.45   L 485.28 819.80   A 0.57 0.56 -90.0 0 1 485.84 819.23   L 515.29 819.23   A 0.60 0.59 -0.5 0 0 515.89 818.63   L 515.86 804.05"/>
<path stroke="#f2e0ad" vector-effect="non-scaling-stroke" d="   M 515.86 804.05   Q 516.44 803.75 516.07 804.04"/>
<path stroke="#808080" vector-effect="non-scaling-stroke" d="   M 516.07 804.04   L 530.42 804.10   A 0.50 0.50 0.0 0 1 530.92 804.60   L 530.92 864.30   A 0.52 0.51 -90.0 0 1 530.41 864.82   L 516.50 864.82   A 0.62 0.61 0.0 0 0 515.88 865.43   L 515.88 879.53   A 0.45 0.44 -90.0 0 1 515.44 879.98   L 501.35 879.98   A 0.46 0.46 0.0 0 0 500.89 880.44   L 500.89 909.73   A 0.35 0.35 0.0 0 0 501.24 910.08   L 576.35 910.08   A 0.70 0.70 0.0 0 0 577.05 909.38   L 577.05 774.47   A 0.63 0.63 0.0 0 1 577.68 773.84   L 591.03 773.84   A 0.78 0.77 -90.0 0 0 591.80 773.06   L 591.80 759.32   A 0.65 0.64 -0.0 0 1 592.45 758.68   L 606.43 758.68   A 0.68 0.67 90.0 0 0 607.10 758.00   L 607.01 743.46"/>
<path stroke="#f2e0ad" vector-effect="non-scaling-stroke" d="   M 607.01 743.46   Q 607.15 743.40 607.21 743.18"/>
<path stroke="#808080" vector-effect="non-scaling-stroke" d="   M 607.21 743.18   L 621.52 743.19   A 0.56 0.56 0.0 0 0 622.08 742.63   L 622.08 728.57   A 0.63 0.63 0.0 0 1 622.71 727.94   L 636.35 727.94   A 0.83 0.82 -0.0 0 1 637.18 728.76   L 637.18 742.67   A 0.51 0.51 0.0 0 0 637.69 743.18   L 667.29 743.18   A 0.36 0.35 -0.0 0 0 667.65 742.83   L 667.65 728.29   A 0.38 0.38 0.0 0 1 668.03 727.91   L 682.44 727.91   A 0.68 0.68 0.0 0 0 683.12 727.23   L 683.12 713.62   A 0.56 0.55 90.0 0 1 683.67 713.06   L 743.21 713.06   A 0.56 0.55 90.0 0 1 743.76 713.62   L 743.76 727.32   A 0.67 0.67 0.0 0 0 744.43 727.99   L 758.12 727.99   A 0.68 0.67 -0.0 0 1 758.80 728.66   L 758.80 742.62   A 0.59 0.59 0.0 0 0 759.39 743.21   L 788.04 743.21   A 0.53 0.53 0.0 0 0 788.57 742.68   L 788.64 727.95"/>
<path stroke="#adb5b8" vector-effect="non-scaling-stroke" d="   M 788.64 727.95   L 788.87 727.89"/>
<path stroke="#808080" vector-effect="non-scaling-stroke" d="   M 788.87 727.89   L 803.31 727.92   A 0.59 0.58 -0.0 0 0 803.90 727.34   L 803.90 652.45   A 0.37 0.37 0.0 0 0 803.53 652.08   L 789.57 652.08   A 0.75 0.74 -0.0 0 1 788.82 651.34   L 788.82 637.49   A 0.41 0.41 0.0 0 0 788.41 637.08   L 759.34 637.08   A 0.56 0.55 90.0 0 0 758.79 637.64   L 758.79 651.52   A 0.61 0.61 0.0 0 1 758.18 652.13   L 744.30 652.13   A 0.55 0.55 0.0 0 1 743.75 651.58   L 743.75 607.37   A 0.49 0.48 90.0 0 0 743.27 606.88   L 727.95 606.89"/>
<path stroke="#f2e0ad" vector-effect="non-scaling-stroke" d="   M 727.95 606.89   Q 727.99 606.88 728.03 606.87"/>
<path stroke="#808080" vector-effect="non-scaling-stroke" d="   M 728.03 606.87   L 728.05 577.13   A 0.43 0.43 0.0 0 0 727.62 576.70   L 713.08 576.70"/>
<path stroke="#f2e0ad" vector-effect="non-scaling-stroke" d="   M 713.08 576.70   Q 712.95 576.69 712.84 576.44"/>
<path stroke="#808080" vector-effect="non-scaling-stroke" d="   M 712.84 576.44   L 712.85 561.86   A 0.55 0.55 0.0 0 0 712.30 561.31   L 698.57 561.29"/>
<path stroke="#c8b798" vector-effect="non-scaling-stroke" d="   M 698.57 561.29   L 697.96 561.04"/>
<path stroke="#808080" vector-effect="non-scaling-stroke" d="   M 697.96 561.04   L 698.03 379.36   A 0.40 0.40 0.0 0 0 697.63 378.96   L 683.63 378.96   A 0.57 0.57 0.0 0 1 683.06 378.39   L 683.06 364.71   A 0.64 0.63 -0.0 0 1 683.70 364.08   L 697.44 364.08   A 0.58 0.58 0.0 0 0 698.02 363.50   L 698.02 319.10   A 0.43 0.43 0.0 0 0 697.59 318.67   L 683.54 318.67   A 0.51 0.51 0.0 0 1 683.03 318.16   L 683.03 303.98   A 0.68 0.68 0.0 0 0 682.35 303.30   L 667.78 303.30   A 0.63 0.63 0.0 0 1 667.15 302.67   L 667.15 273.69   A 0.79 0.79 0.0 0 0 666.36 272.90   L 653.12 272.90   A 0.78 0.78 0.0 0 1 652.34 272.12   L 652.34 243.35   A 0.36 0.36 0.0 0 0 651.98 242.99   L 637.50 242.99   A 0.40 0.40 0.0 0 1 637.10 242.59   L 637.10 228.35   A 0.58 0.57 90.0 0 0 636.53 227.77   L 622.64 227.77   A 0.58 0.58 0.0 0 1 622.06 227.19   L 622.06 212.91   A 0.59 0.59 0.0 0 0 621.47 212.32   L 591.45 212.55"/>
<path stroke="#f2e0ad" vector-effect="non-scaling-stroke" d="   M 591.45 212.55   Q 591.30 212.35 591.33 212.22"/>
<path stroke="#808080" vector-effect="non-scaling-stroke" d="   M 591.33 212.22   L 591.27 197.59   A 0.51 0.51 0.0 0 0 590.76 197.08   L 561.74 197.04"/>
<path stroke="#f2e0ad" vector-effect="non-scaling-stroke" d="   M 561.74 197.04   Q 561.60 197.02 561.45 196.99"/>
<path stroke="#808080" vector-effect="non-scaling-stroke" d="   M 561.45 196.99   L 561.45 182.41   A 0.39 0.39 0.0 0 0 561.06 182.02   L 531.45 182.02   A 0.51 0.50 0.0 0 1 530.94 181.52   L 530.94 152.44   A 0.61 0.60 90.0 0 0 530.34 151.83   L 516.57 151.83   A 0.58 0.57 90.0 0 1 516.00 151.25   L 516.00 121.98   A 0.60 0.60 0.0 0 0 515.40 121.38   L 500.80 121.38   A 0.58 0.58 0.0 0 1 500.22 120.80   L 500.22 106.67   A 0.51 0.51 0.0 0 0 499.71 106.16   L 455.37 106.16   A 0.38 0.38 0.0 0 0 454.99 106.54   L 454.99 120.62   A 0.84 0.83 -0.0 0 1 454.15 121.45   L 440.31 121.45   A 0.40 0.40 0.0 0 0 439.91 121.85   L 439.91 166.35   A 0.53 0.52 0.0 0 0 440.44 166.87   L 454.41 166.87   A 0.60 0.60 0.0 0 1 455.01 167.47   L 455.01 181.48   A 0.56 0.56 0.0 0 0 455.57 182.04   L 469.09 182.04   A 0.68 0.68 0.0 0 1 469.77 182.72   L 469.82 227.75"/>
<path stroke="#73602e" vector-effect="non-scaling-stroke" d="   M 561.45 196.99   L 531.47 196.95"/>
<path stroke="#5d4f24" vector-effect="non-scaling-stroke" d="   M 531.47 196.95   L 530.96 196.75"/>
<path stroke="#483718" vector-effect="non-scaling-stroke" d="   M 530.96 196.75   L 531.01 183.09   A 1.11 1.11 0.0 0 0 529.90 181.98   L 516.82 181.98   A 0.84 0.84 0.0 0 1 515.98 181.14   L 515.98 152.71   A 0.97 0.96 -90.0 0 0 515.02 151.74   L 501.40 151.74   A 0.99 0.99 0.0 0 1 500.41 150.76   L 500.35 137.04"/>
<path stroke="#37230e" vector-effect="non-scaling-stroke" d="   M 500.35 137.04   L 500.29 122.88   A 1.61 1.61 0.0 0 0 498.68 121.27   L 456.14 121.27   A 1.23 1.22 -0.0 0 0 454.91 122.49   L 454.91 165.06   A 1.73 1.72 0.3 0 0 456.62 166.78   Q 463.51 166.83 468.00 166.90   Q 469.48 166.92 470.09 167.76"/>
<path stroke="#5d4f24" vector-effect="non-scaling-stroke" d="   M 470.09 167.76   L 469.98 180.66   A 1.21 1.21 0.0 0 0 471.19 181.88   L 483.92 181.88   A 0.96 0.96 0.0 0 1 484.88 182.84   L 484.87 227.45"/>
<path stroke="#797144" vector-effect="non-scaling-stroke" d="   M 484.87 227.45   Q 484.81 227.53 484.75 227.61"/>
<path stroke="#7d785a" vector-effect="non-scaling-stroke" d="   M 484.75 227.61   L 469.82 227.75"/>
<path stroke="#dac77e" vector-effect="non-scaling-stroke" d="   M 484.92 303.40   L 485.01 288.93   A 0.51 0.51 0.0 0 0 484.50 288.41   L 469.76 288.29"/>
<path stroke="#7d785a" vector-effect="non-scaling-stroke" d="   M 469.76 288.29   L 469.82 227.75"/>
<path stroke="#7f5a26" vector-effect="non-scaling-stroke" d="   M 500.35 137.04   L 486.04 136.96   A 0.75 0.75 0.0 0 0 485.29 137.71   L 485.29 150.54   A 1.37 1.37 0.0 0 1 483.92 151.91   L 470.73 151.91   A 0.66 0.66 0.0 0 0 470.07 152.57   L 470.07 166.46   A 0.65 0.65 0.0 0 0 470.72 167.11   L 482.05 167.12"/>
<path stroke="#947231" vector-effect="non-scaling-stroke" d="   M 482.05 167.12   Q 476.78 167.31 471.52 167.24   Q 470.87 167.24 470.09 167.76"/>
<path stroke="#5d4f24" vector-effect="non-scaling-stroke" d="   M 469.76 288.29   L 469.77 303.33"/>
<path stroke="#a5863c" vector-effect="non-scaling-stroke" d="   M 530.96 196.75   Q 528.27 197.37 526.75 197.29   Q 513.47 196.64 500.98 197.06   A 1.08 1.08 0.0 0 1 499.87 195.92   Q 500.77 181.70 499.56 167.33   A 0.57 0.57 0.0 0 0 498.98 166.81   L 482.05 167.12"/>
<path stroke="#d0af51" vector-effect="non-scaling-stroke" d="   M 531.47 196.95   L 531.21 197.27   A 1.07 1.03 65.0 0 0 530.97 197.97   L 531.28 212.19"/>
<path stroke="#d6c067" vector-effect="non-scaling-stroke" d="   M 531.28 212.19   L 500.95 212.02   A 0.85 0.84 89.0 0 0 500.10 212.91   L 500.81 226.64   A 1.22 1.21 89.8 0 1 499.56 227.91   L 484.87 227.45"/>
<path stroke="#797144" vector-effect="non-scaling-stroke" d="   M 607.06 303.38   L 500.30 303.35"/>
<path stroke="#f5e99e" vector-effect="non-scaling-stroke" d="   M 500.30 303.35   Q 499.21 292.67 500.25 281.80   Q 500.64 277.83 500.20 274.12   A 1.05 1.03 -4.7 0 0 499.11 273.21   Q 495.26 273.41 486.69 273.50   Q 484.24 273.53 484.27 270.78   C 484.42 260.69 485.44 248.74 484.61 237.46   C 484.36 234.08 484.62 230.92 484.75 227.61"/>
<path stroke="#73602e" vector-effect="non-scaling-stroke" d="   M 591.45 212.55   L 591.48 227.17   A 0.45 0.45 0.0 0 0 591.93 227.62   L 606.37 227.62   A 0.55 0.55 0.0 0 1 606.92 228.17   L 606.92 242.17   A 0.73 0.73 0.0 0 0 607.65 242.90   L 621.49 242.90   A 0.65 0.65 0.0 0 1 622.14 243.55   L 622.14 257.25   A 0.48 0.48 0.0 0 0 622.62 257.73   L 636.60 257.73   A 0.57 0.57 0.0 0 1 637.17 258.30   L 637.17 272.18   A 0.74 0.74 0.0 0 0 637.91 272.92   L 650.93 272.92   A 1.46 1.45 90.0 0 1 652.38 274.38   L 652.38 302.88   A 0.40 0.39 90.0 0 1 651.99 303.28   L 607.06 303.38"/>
<path stroke="#ebd171" vector-effect="non-scaling-stroke" d="   M 607.06 303.38   L 606.70 289.28   A 1.30 1.29 -0.9 0 0 605.40 288.03   L 593.00 288.03   A 1.07 1.07 0.0 0 1 591.93 286.96   L 591.93 274.06   A 0.88 0.88 0.0 0 0 591.05 273.18   L 577.86 273.18   A 1.04 1.03 -0.0 0 1 576.82 272.15   L 576.82 243.69   A 0.72 0.72 0.0 0 0 576.10 242.97   L 562.55 242.97   A 1.06 1.05 90.0 0 1 561.50 241.91   L 561.50 228.96   A 0.88 0.87 -0.0 0 0 560.62 228.09   L 547.86 228.09   A 1.72 1.72 0.0 0 1 546.14 226.37   L 546.14 213.29   A 0.92 0.91 -89.7 0 0 545.24 212.37   L 531.28 212.19"/>
<path stroke="#483718" vector-effect="non-scaling-stroke" d="   M 697.96 561.04   L 697.52 561.39"/>
<path stroke="#73602e" vector-effect="non-scaling-stroke" d="   M 697.52 561.39   L 683.29 561.15   A 0.41 0.41 0.0 0 1 682.88 560.74   L 682.88 547.04   A 0.73 0.73 0.0 0 0 682.15 546.31   L 668.22 546.31   A 0.63 0.62 -2.5 0 1 667.59 545.74   L 667.48 544.48"/>
<path stroke="#797144" vector-effect="non-scaling-stroke" d="   M 667.48 544.48   L 667.55 531.55   A 0.58 0.57 -0.0 0 1 668.13 530.98   L 681.87 530.98   A 0.96 0.96 0.0 0 0 682.83 530.02   L 682.83 379.92   A 0.82 0.82 0.0 0 0 682.32 379.16   Q 681.66 378.89 680.55 379.18"/>
<path stroke="#73602e" vector-effect="non-scaling-stroke" d="   M 680.55 379.18   L 622.63 379.19"/>
<path stroke="#797144" vector-effect="non-scaling-stroke" d="   M 622.63 379.19   L 501.30 379.17"/>
<path stroke="#7d785a" vector-effect="non-scaling-stroke" d="   M 501.30 379.17   L 485.58 379.08   A 0.57 0.57 0.0 0 0 485.00 379.65   L 485.00 393.47   A 0.95 0.95 0.0 0 0 485.96 394.42   L 511.27 394.40"/>
<path stroke="#797144" vector-effect="non-scaling-stroke" d="   M 511.27 394.40   L 515.37 394.39   A 0.63 0.63 0.0 0 1 516.00 395.02   L 516.00 409.28   A 0.60 0.59 -90.0 0 0 516.59 409.88   L 530.23 409.88   A 0.66 0.65 89.6 0 1 530.88 410.53   L 530.98 424.32   A 0.52 0.45 62.3 0 1 530.93 424.54   Q 530.57 425.16 530.17 425.03"/>
<path stroke="#808080" vector-effect="non-scaling-stroke" d="   M 530.17 425.03   L 516.09 424.67"/>
<path stroke="#797144" vector-effect="non-scaling-stroke" d="   M 516.09 424.67   L 515.91 410.86   A 0.75 0.75 0.0 0 0 515.16 410.12   L 500.58 410.10"/>
<path stroke="#7d785a" vector-effect="non-scaling-stroke" d="   M 500.58 410.10   L 485.19 409.90   A 0.24 0.24 0.0 0 0 484.94 410.14   L 484.94 530.80   A 0.28 0.27 90.0 0 1 484.67 531.08   L 470.37 531.08   A 0.54 0.54 0.0 0 0 469.83 531.62   L 469.83 591.07   A 0.56 0.55 90.0 0 1 469.28 591.63   L 455.48 591.63   A 0.61 0.60 -90.0 0 0 454.88 592.24   L 454.88 621.32   A 0.67 0.67 0.0 0 1 454.22 621.99   Q 448.02 622.12 440.51 621.96   Q 439.79 621.95 439.90 621.38"/>
<path stroke="#808080" vector-effect="non-scaling-stroke" d="   M 439.90 621.38   L 439.84 607.57   A 0.52 0.52 0.0 0 0 439.33 607.05   L 425.02 607.02"/>
<path stroke="#7b6801" vector-effect="non-scaling-stroke" d="   M 425.02 607.02   L 424.97 592.00   A 0.34 0.34 0.0 0 1 425.31 591.65   L 439.39 591.65   A 0.56 0.56 0.0 0 0 439.95 591.09   L 439.95 577.49   A 0.88 0.87 90.0 0 1 440.82 576.61   L 454.44 576.61   A 0.51 0.50 -0.0 0 0 454.95 576.11   L 454.95 562.04   A 0.70 0.70 0.0 0 0 454.25 561.34   L 439.55 561.33"/>
<path stroke="#73602e" vector-effect="non-scaling-stroke" d="   M 439.55 561.33   L 425.09 561.35"/>
<path stroke="#11406a" vector-effect="non-scaling-stroke" d="   M 469.80 364.07   L 681.78 364.07   A 1.09 1.08 -0.0 0 0 682.87 362.99   L 682.87 320.31   A 1.39 1.39 0.0 0 0 681.49 318.92   L 620.70 318.57"/>
<path stroke="#025274" vector-effect="non-scaling-stroke" d="   M 620.70 318.57   L 470.92 318.62   A 1.06 1.06 0.0 0 0 469.86 319.68   L 469.89 334.01"/>
<path stroke="#597978" vector-effect="non-scaling-stroke" d="   M 469.89 334.01   L 469.88 348.90"/>
<path stroke="#11406a" vector-effect="non-scaling-stroke" d="   M 469.88 348.90   L 469.99 364.09"/>
<path stroke="#5d4f24" vector-effect="non-scaling-stroke" d="   M 469.83 303.36   L 484.92 303.40"/>
<path stroke="#7d785a" vector-effect="non-scaling-stroke" d="   M 484.92 303.40   L 500.30 303.35"/>
<path stroke="#73602e" vector-effect="non-scaling-stroke" d="   M 591.33 212.22   L 562.11 212.23   A 0.39 0.38 -0.0 0 1 561.72 211.85   L 561.74 197.04"/>
<path stroke="#483718" vector-effect="non-scaling-stroke" d="   M 698.57 561.29   Q 698.11 561.39 698.03 561.77"/>
<path stroke="#ebd171" vector-effect="non-scaling-stroke" d="   M 680.55 379.18   L 680.31 527.04   A 1.17 1.16 87.3 0 1 679.26 528.20   L 668.82 529.26   A 1.08 1.08 0.0 0 0 668.17 529.57   L 666.48 531.26   A 1.81 1.78 -17.9 0 0 666.00 532.18   C 665.25 536.34 664.88 540.78 667.48 544.48"/>
<path stroke="#bb9746" vector-effect="non-scaling-stroke" d="   M 697.52 561.39   L 698.03 561.77"/>
<path stroke="#73602e" vector-effect="non-scaling-stroke" d="   M 698.03 561.77   L 698.03 576.30   A 0.51 0.51 0.0 0 0 698.54 576.81   Q 705.46 576.73 712.42 576.82   Q 712.65 576.82 712.84 576.44"/>
<path stroke="#73602e" vector-effect="non-scaling-stroke" d="   M 713.08 576.70   L 713.06 606.64   A 0.22 0.21 0.0 0 0 713.28 606.85   L 728.03 606.87"/>
<path stroke="#73602e" vector-effect="non-scaling-stroke" d="   M 727.95 606.89   L 728.05 610.13"/>
<path stroke="#eec82e" vector-effect="non-scaling-stroke" d="   M 728.05 610.13   Q 722.53 608.24 715.69 608.61   A 0.96 0.94 -86.5 0 0 714.81 609.40   L 712.85 621.22"/>
<path stroke="#73602e" vector-effect="non-scaling-stroke" d="   M 712.85 621.22   L 712.86 607.87   A 1.01 1.01 0.0 0 0 711.82 606.86   L 697.93 607.29"/>
<path stroke="#f2e0ad" vector-effect="non-scaling-stroke" d="   M 697.93 607.29   L 697.52 607.06"/>
<path stroke="#73602e" vector-effect="non-scaling-stroke" d="   M 697.52 607.06   Q 697.98 607.28 697.90 606.77   Q 697.70 605.53 697.80 604.33"/>
<path stroke="#eec82e" vector-effect="non-scaling-stroke" d="   M 697.80 604.33   L 709.47 605.08   A 1.33 1.33 0.0 0 0 710.89 603.84   Q 711.68 592.24 711.03 580.23   A 1.47 1.47 0.0 0 0 709.45 578.85   Q 703.62 579.29 697.59 577.62   A 0.77 0.77 0.0 0 1 697.03 577.00   L 695.32 565.84   A 0.89 0.88 4.2 0 0 694.69 565.12   L 682.13 561.44   A 1.57 1.56 7.1 0 1 681.01 560.01   L 680.48 549.65   A 1.47 1.46 86.9 0 0 678.94 548.26   L 668.05 548.82   A 1.00 1.00 0.0 0 0 667.10 549.86   L 667.58 561.33"/>
<path stroke="#73602e" vector-effect="non-scaling-stroke" d="   M 667.58 561.33   L 653.17 561.24   A 0.78 0.78 0.0 0 0 652.38 562.02   L 652.38 576.03   A 0.66 0.66 0.0 0 0 653.04 576.69   L 667.06 576.69   A 0.47 0.47 0.0 0 1 667.53 577.16   L 667.53 636.03   A 1.01 1.00 -90.0 0 1 666.53 637.04   L 637.72 637.04   A 0.58 0.58 0.0 0 0 637.14 637.62   L 637.14 651.06   A 1.05 1.04 90.0 0 1 636.10 652.11   L 622.74 652.11   A 0.60 0.60 0.0 0 0 622.14 652.71   L 622.14 712.22   A 0.62 0.62 0.0 0 1 621.52 712.84   L 607.46 712.84   A 0.39 0.39 0.0 0 0 607.07 713.23   Q 606.82 734.20 606.81 742.25   Q 606.81 742.91 607.21 743.18"/>
<path stroke="#73602e" vector-effect="non-scaling-stroke" d="   M 607.01 743.46   Q 606.96 743.37 606.81 743.25   A 0.39 0.33 58.3 0 0 606.60 743.18   L 592.31 743.32   A 0.55 0.54 90.0 0 0 591.77 743.87   L 591.77 757.97   A 0.74 0.74 0.0 0 1 591.03 758.71   L 577.36 758.71   A 0.57 0.57 0.0 0 0 576.79 759.28   L 576.79 773.31   A 0.58 0.58 0.0 0 1 576.21 773.89   L 546.82 773.89   A 0.54 0.54 0.0 0 0 546.28 774.43   L 546.28 788.29   A 0.57 0.57 0.0 0 1 545.71 788.86   L 516.59 788.86   A 0.54 0.53 90.0 0 0 516.06 789.40   L 516.07 804.04"/>
<path stroke="#73602e" vector-effect="non-scaling-stroke" d="   M 515.86 804.05   L 455.26 804.06"/>
<path stroke="#ebd171" vector-effect="non-scaling-stroke" d="   M 455.26 804.06   Q 453.49 810.52 453.72 816.28   A 0.61 0.61 0.0 0 1 453.24 816.90   Q 449.61 817.65 446.25 817.45   Q 436.75 816.88 428.89 817.04   C 415.68 817.30 401.57 816.68 391.60 816.86   Q 387.11 816.94 379.06 818.60"/>
<path stroke="#aa833b" vector-effect="non-scaling-stroke" d="   M 379.06 818.60   L 379.14 788.91"/>
<path stroke="#eec82e" vector-effect="non-scaling-stroke" d="   M 439.55 561.33   C 436.30 563.61 430.81 563.41 427.54 563.55   A 1.05 1.05 0.0 0 0 426.53 564.60   L 426.53 576.04   A 0.86 0.85 -10.4 0 1 425.97 576.84   Q 419.55 579.25 413.79 579.04   A 2.32 2.32 0.0 0 0 411.39 581.50   Q 411.78 588.28 412.07 595.04   Q 412.29 600.24 409.91 604.76"/>
<path stroke="#69b8e1" vector-effect="non-scaling-stroke" d="   M 469.88 348.90   L 651.81 348.91   A 0.63 0.63 0.0 0 0 652.44 348.28   L 652.44 334.51   A 0.46 0.46 0.0 0 0 651.98 334.05   L 622.11 334.02"/>
<path stroke="#ebd171" vector-effect="non-scaling-stroke" d="   M 622.63 379.19   L 621.80 393.19   A 1.17 1.16 1.8 0 0 622.97 394.43   L 636.26 394.43   A 0.80 0.79 -90.0 0 1 637.05 395.23   Q 636.86 470.53 637.13 557.75   Q 637.14 559.84 636.84 560.65   A 1.07 1.06 9.6 0 1 635.83 561.36   L 622.60 561.36   A 0.64 0.63 90.0 0 0 621.97 562.00   L 621.97 605.26   A 1.31 1.31 0.0 0 1 620.66 606.57   L 607.88 606.57   A 1.02 1.02 0.0 0 0 606.86 607.59   L 606.86 635.43   A 1.33 1.33 0.0 0 1 605.53 636.76   L 592.61 636.76   A 1.05 1.05 0.0 0 0 591.56 637.81   L 591.56 666.89   A 0.81 0.80 -0.0 0 1 590.75 667.69   L 577.97 667.69   A 1.34 1.33 90.0 0 0 576.64 669.03   L 576.64 681.29   A 1.35 1.35 0.0 0 1 575.29 682.64   L 562.62 682.64   A 0.90 0.90 0.0 0 0 561.72 683.54   L 561.72 697.24   A 0.69 0.69 0.0 0 1 561.03 697.93   L 547.19 697.93   A 1.20 1.20 0.0 0 0 545.99 699.13   L 545.99 711.67   A 0.99 0.99 0.0 0 1 545.00 712.66   L 531.98 712.66   A 1.05 1.04 0.0 0 0 530.93 713.70   L 530.93 727.13   A 0.80 0.80 0.0 0 1 530.13 727.93   L 516.77 727.93   A 1.05 1.05 0.0 0 0 515.72 728.98   L 515.72 742.07   A 1.09 1.08 -90.0 0 1 514.64 743.16   L 501.86 743.16   A 1.15 1.15 0.0 0 0 500.71 744.31   L 500.71 757.73   A 0.96 0.96 0.0 0 1 499.75 758.69   L 470.47 758.69   A 0.75 0.75 0.0 0 0 469.72 759.44   L 469.72 772.36   A 1.41 1.41 0.0 0 1 468.31 773.77   L 426.26 773.77   A 1.14 1.14 0.0 0 0 425.12 774.91   L 425.12 788.13   A 0.86 0.86 0.0 0 1 424.26 788.99   Q 404.66 788.86 387.25 788.51   Q 383.21 788.43 379.14 788.91"/>
<path stroke="#b09451" vector-effect="non-scaling-stroke" d="   M 379.14 788.91   L 364.79 788.92   A 0.89 0.89 0.0 0 1 363.90 788.03   L 363.90 774.44   A 0.58 0.58 0.0 0 0 363.32 773.86   L 349.15 773.95"/>
<path stroke="#797144" vector-effect="non-scaling-stroke" d="   M 349.15 773.95   L 349.23 759.35   A 0.52 0.52 0.0 0 1 349.75 758.84   L 363.96 758.79"/>
<path stroke="#f5e99e" vector-effect="non-scaling-stroke" d="   M 363.96 758.79   L 377.50 758.20   A 1.51 1.51 0.0 0 0 378.95 756.72   L 379.16 746.52   A 2.95 2.94 77.5 0 1 380.79 743.95   C 383.76 742.48 390.30 742.62 393.26 742.72   A 0.66 0.65 -89.2 0 0 393.93 742.06   L 393.93 729.28   A 1.27 1.27 0.0 0 1 395.20 728.01   L 408.99 728.01   A 0.78 0.78 0.0 0 0 409.77 727.23   L 409.77 698.83   A 1.17 1.16 0.0 0 1 410.94 697.67   L 423.31 697.67   A 1.29 1.28 87.7 0 0 424.59 696.28   Q 424.05 689.30 425.46 683.60   A 1.31 1.30 6.7 0 1 426.73 682.60   L 438.29 682.60   A 1.38 1.38 0.0 0 0 439.67 681.18   Q 439.32 669.27 439.67 657.42   Q 439.75 654.54 440.63 653.06   A 2.71 2.71 0.0 0 1 442.95 651.72   L 453.32 651.63   A 1.29 1.29 0.0 0 0 454.60 650.37   Q 454.87 638.80 454.85 626.34   Q 454.85 625.10 455.36 623.26   A 0.96 0.95 -0.6 0 1 456.02 622.59   C 459.95 621.46 464.55 621.42 468.40 621.41   A 1.35 1.35 0.0 0 0 469.75 620.06   L 469.75 594.66   A 2.19 2.18 -13.5 0 1 470.95 592.71   C 474.12 591.12 479.68 591.03 483.62 591.19   A 1.05 1.05 0.0 0 0 484.72 590.18   Q 485.04 581.29 484.73 571.59   C 484.37 560.15 484.90 546.89 484.98 536.25   C 484.99 534.25 485.44 530.71 488.50 530.68   Q 488.54 530.68 499.44 530.49   A 0.83 0.83 0.0 0 0 500.25 529.66   L 500.00 460.04   A 3.31 3.03 -42.4 0 1 500.05 459.48   L 500.80 454.94"/>
<path stroke="#797144" vector-effect="non-scaling-stroke" d="   M 500.80 454.94   L 515.99 454.94"/>
<path stroke="#f8f1c3" vector-effect="non-scaling-stroke" d="   M 515.99 454.94   L 529.82 454.40   A 0.96 0.96 0.0 0 0 530.75 453.43   L 530.60 426.48   A 2.24 2.20 33.2 0 0 530.40 425.56   L 530.17 425.03"/>
<path stroke="#f5e99e" vector-effect="non-scaling-stroke" d="   M 500.58 410.10   Q 499.52 417.94 500.75 424.87"/>
<path stroke="#7d785a" vector-effect="non-scaling-stroke" d="   M 500.75 424.87   L 500.80 454.94"/>
<path stroke="#7d785a" vector-effect="non-scaling-stroke" d="   M 363.96 758.79   L 363.94 743.47   A 0.42 0.42 0.0 0 1 364.36 743.05   L 378.28 743.05   A 0.76 0.76 0.0 0 0 379.04 742.29   L 379.04 713.24   A 0.39 0.39 0.0 0 1 379.43 712.85   L 393.57 712.85   A 0.59 0.58 -90.0 0 0 394.15 712.26   L 394.15 698.73   A 0.74 0.74 0.0 0 1 394.89 697.99   L 409.50 697.99   A 0.46 0.46 0.0 0 0 409.96 697.53   L 409.96 683.59   A 0.87 0.87 0.0 0 1 410.83 682.72   L 424.20 682.72   A 0.64 0.64 0.0 0 0 424.84 682.08   L 424.84 652.80   A 0.56 0.56 0.0 0 1 425.40 652.24   L 439.33 652.24   A 0.42 0.42 0.0 0 0 439.75 651.82   L 439.86 621.86"/>
<path stroke="#fcf8da" vector-effect="non-scaling-stroke" d="   M 439.86 621.86   L 439.90 621.38"/>
<path stroke="#f5e99e" vector-effect="non-scaling-stroke" d="   M 501.30 379.17   Q 499.12 385.40 500.65 391.18   A 1.82 1.81 79.9 0 0 502.58 392.53   Q 507.17 392.09 511.27 394.40"/>
<path stroke="#1291de" vector-effect="non-scaling-stroke" d="   M 620.70 318.57   Q 622.26 321.77 622.08 323.29   Q 621.43 328.80 622.11 334.02"/>
<path stroke="#5acaec" vector-effect="non-scaling-stroke" d="   M 622.11 334.02   L 469.89 334.01"/>
<path stroke="#f8f1c3" vector-effect="non-scaling-stroke" d="   M 516.09 424.67   Q 516.02 424.77 515.94 424.86"/>
<path stroke="#797144" vector-effect="non-scaling-stroke" d="   M 515.94 424.86   L 500.75 424.87"/>
<path stroke="#73602e" vector-effect="non-scaling-stroke" d="   M 424.54 561.33   Q 424.91 561.51 424.91 561.76   Q 424.92 576.00 424.92 576.16   A 0.59 0.58 88.6 0 1 424.34 576.78   L 410.48 576.84   A 0.58 0.57 -89.5 0 0 409.91 577.41   L 409.91 604.76"/>
<path stroke="#7b6801" vector-effect="non-scaling-stroke" d="   M 409.91 604.76   Q 410.04 605.60 409.90 606.49   A 0.59 0.58 4.6 0 1 409.32 606.98   L 395.04 606.98   A 1.15 1.15 0.0 0 0 393.89 608.13   L 394.00 682.53   A 0.19 0.15 -38.0 0 1 393.98 682.61   Q 393.93 682.72 393.87 682.84"/>
<path stroke="#2e3538" vector-effect="non-scaling-stroke" d="   M 393.87 682.84   L 379.67 682.84   A 0.54 0.53 -90.0 0 0 379.14 683.38   L 379.14 697.35   A 0.54 0.54 0.0 0 0 379.68 697.89   L 393.28 697.89   A 0.58 0.57 0.0 0 0 393.86 697.32   L 393.87 682.84"/>
<path stroke="#7b6801" vector-effect="non-scaling-stroke" d="   M 393.87 682.84   L 409.11 682.77   A 0.92 0.91 90.0 0 0 410.02 681.85   L 410.02 607.43   A 0.38 0.38 0.0 0 1 410.40 607.05   L 425.02 607.02"/>
<path stroke="#808080" vector-effect="non-scaling-stroke" d="   M 425.02 607.02   L 425.11 621.32   A 0.51 0.51 0.0 0 0 425.62 621.83   L 439.86 621.86"/>
<path stroke="#37230e" vector-effect="non-scaling-stroke" d="   M 349.15 773.95   L 335.83 773.79   A 1.71 1.71 0.0 0 0 334.10 775.50   L 334.10 801.96   A 2.32 2.31 90.0 0 0 336.41 804.28   L 347.98 804.28   A 1.08 1.08 0.0 0 1 349.06 805.40   Q 348.89 810.02 349.13 816.18   Q 349.25 819.25 351.50 819.26   Q 365.52 819.31 379.54 819.22"/>
<path stroke="#797144" vector-effect="non-scaling-stroke" d="   M 379.54 819.22   L 454.66 819.16   A 0.56 0.56 0.0 0 0 455.22 818.60   L 455.26 804.06"/>
<path stroke="#808080" vector-effect="non-scaling-stroke" d="   M 697.52 607.06   L 683.45 607.00   A 0.36 0.36 0.0 0 0 683.09 607.36   L 683.09 636.65   A 0.44 0.44 0.0 0 1 682.65 637.09   L 668.28 637.09   A 0.61 0.61 0.0 0 0 667.67 637.70   L 667.67 651.65   A 0.43 0.43 0.0 0 0 668.10 652.08   L 682.76 652.08   A 0.35 0.35 0.0 0 1 683.11 652.43   L 683.11 667.08   A 0.63 0.63 0.0 0 0 683.74 667.71   L 697.39 667.71   A 0.48 0.48 0.0 0 0 697.87 667.23   L 697.93 607.29"/>
<path stroke="#7b6801" vector-effect="non-scaling-stroke" d="   M 712.85 621.22   L 712.87 667.28   A 0.47 0.47 0.0 0 1 712.40 667.75   L 699.08 667.75   A 1.23 1.23 0.0 0 0 697.85 668.97   L 697.81 683.00"/>
<path stroke="#2e3538" vector-effect="non-scaling-stroke" d="   M 697.81 683.00   L 683.67 682.98   A 0.62 0.62 0.0 0 0 683.05 683.60   L 683.05 697.25   A 0.63 0.62 -0.0 0 0 683.68 697.87   L 697.75 697.88"/>
<path stroke="#73602e" vector-effect="non-scaling-stroke" d="   M 697.75 697.88   L 728.02 697.95"/>
<path stroke="#2e3538" vector-effect="non-scaling-stroke" d="   M 728.02 697.95   L 743.34 697.93   A 0.43 0.42 -0.0 0 0 743.77 697.51   L 743.77 683.23   A 0.51 0.51 0.0 0 0 743.25 682.72   L 728.14 682.78"/>
<path stroke="#7b6801" vector-effect="non-scaling-stroke" d="   M 728.14 682.78   L 728.05 610.13"/>
<path stroke="#2e3538" vector-effect="non-scaling-stroke" d="   M 788.87 727.89   L 788.85 712.79"/>
<path stroke="#3f484b" vector-effect="non-scaling-stroke" d="   M 788.85 712.79   L 788.89 683.15"/>
<path stroke="#597978" vector-effect="non-scaling-stroke" d="   M 788.89 683.15   L 788.84 667.67"/>
<path stroke="#3f484b" vector-effect="non-scaling-stroke" d="   M 788.84 667.67   L 789.04 653.35   A 1.12 1.12 0.0 0 0 787.92 652.21   L 759.40 652.21   A 0.62 0.62 0.0 0 0 758.78 652.83   L 758.80 712.80"/>
<path stroke="#2e3538" vector-effect="non-scaling-stroke" d="   M 758.80 712.80   L 758.85 727.36   A 0.51 0.51 0.0 0 0 759.36 727.87   L 788.64 727.95"/>
<path stroke="#b09451" vector-effect="non-scaling-stroke" d="   M 379.06 818.60   Q 379.34 818.53 379.54 819.22"/>
<path stroke="#a99d39" vector-effect="non-scaling-stroke" d="   M 728.14 682.78   L 728.05 684.00"/>
<path stroke="#eec82e" vector-effect="non-scaling-stroke" d="   M 728.05 684.00   Q 726.38 689.14 726.30 694.36   A 0.80 0.80 0.0 0 1 725.66 695.13   Q 723.26 695.63 720.61 695.75   Q 709.28 696.24 697.95 695.10"/>
<path stroke="#a99d39" vector-effect="non-scaling-stroke" d="   M 697.95 695.10   L 697.81 683.00"/>
<path stroke="#7b6801" vector-effect="non-scaling-stroke" d="   M 697.80 604.33   L 697.77 592.30   A 0.47 0.47 0.0 0 0 697.30 591.83   L 683.95 591.83   A 0.95 0.94 -90.0 0 1 683.01 590.88   L 683.01 577.26   A 0.64 0.64 0.0 0 0 682.37 576.62   L 668.44 576.62   A 0.72 0.72 0.0 0 1 667.72 575.91   L 667.58 561.33"/>
<path stroke="#808080" vector-effect="non-scaling-stroke" d="   M 515.94 424.86   L 515.99 454.94"/>
<path stroke="#a09566" vector-effect="non-scaling-stroke" d="   M 728.02 697.95   L 728.05 684.00"/>
<path stroke="#a09566" vector-effect="non-scaling-stroke" d="   M 697.95 695.10   L 697.75 697.88"/>
<path stroke="#98c1c3" vector-effect="non-scaling-stroke" d="   M 788.84 667.67   L 775.30 667.60   A 1.28 1.28 0.0 0 0 774.01 668.88   L 774.01 681.18   A 1.23 1.23 0.0 0 0 775.18 682.41   L 788.89 683.15"/>
<path stroke="#6d7d83" vector-effect="non-scaling-stroke" d="   M 788.85 712.79   Q 773.97 713.59 758.80 712.80"/>
<path stroke="#797144" vector-effect="non-scaling-stroke" d="   M 577.18 394.52   A 0.35 0.35 0.0 0 0 576.83 394.87   L 576.83 409.59   A 0.35 0.35 0.0 0 1 576.48 409.94   L 562.05 409.94   A 0.35 0.35 0.0 0 0 561.70 410.29   L 561.70 424.49   A 0.35 0.35 0.0 0 0 562.05 424.84   L 576.53 424.84   A 0.35 0.35 0.0 0 0 576.88 424.49   L 576.88 410.39   A 0.35 0.35 0.0 0 1 577.23 410.04   L 606.66 410.04   A 0.35 0.35 0.0 0 0 607.01 409.69   L 607.01 394.87   A 0.35 0.35 0.0 0 0 606.66 394.52   L 577.18 394.52"/>
<path stroke="#f8f1c3" vector-effect="non-scaling-stroke" d="   M 591.55 454.77   L 606.17 454.67   A 0.66 0.65 -90.0 0 0 606.82 454.01   L 606.82 425.64   A 0.49 0.49 0.0 0 0 606.34 425.15   L 591.51 425.04"/>
<path stroke="#797144" vector-effect="non-scaling-stroke" d="   M 591.51 425.04   L 577.19 424.97   A 0.24 0.23 90.0 0 0 576.96 425.21   L 576.96 454.24   A 0.54 0.54 0.0 0 0 577.50 454.78   L 591.55 454.77"/>
<path stroke="#808080" vector-effect="non-scaling-stroke" d="   M 591.51 425.04   L 591.55 454.77"/>
<path stroke="#797144" vector-effect="non-scaling-stroke" d="   M 591.6319 486.3129   A 0.55 0.55 0.0 0 0 591.0829 485.7619   L 577.4229 485.7381   A 0.55 0.55 0.0 0 0 576.8719 486.2871   L 576.8481 499.9471   A 0.55 0.55 0.0 0 0 577.3971 500.4981   L 591.0571 500.5219   A 0.55 0.55 0.0 0 0 591.6081 499.9729   L 591.6319 486.3129"/>
<path stroke="#797144" vector-effect="non-scaling-stroke" d="   M 576.83 501.30   A 0.51 0.51 0.0 0 0 576.32 500.79   L 516.38 500.79   A 0.51 0.51 0.0 0 0 515.87 501.30   L 515.87 515.22   A 0.51 0.51 0.0 0 0 516.38 515.73   L 576.32 515.73   A 0.51 0.51 0.0 0 0 576.83 515.22   L 576.83 501.30"/>
<path stroke="#597978" vector-effect="non-scaling-stroke" d="   M 334.02 667.66   L 334.02 682.75"/>
<path stroke="#3f484b" vector-effect="non-scaling-stroke" d="   M 334.02 682.75   L 334.13 713.28"/>
<path stroke="#2e3538" vector-effect="non-scaling-stroke" d="   M 334.13 713.28   L 334.21 727.30   A 0.66 0.65 0.0 0 0 334.87 727.95   L 363.34 727.95   A 0.69 0.68 -0.4 0 0 364.03 727.26   L 363.97 713.02"/>
<path stroke="#3f484b" vector-effect="non-scaling-stroke" d="   M 363.97 713.02   L 363.88 652.62   A 0.44 0.43 -90.0 0 0 363.45 652.18   L 335.07 652.18   A 1.02 1.02 0.0 0 0 334.05 653.20   L 334.02 667.66"/>
<path stroke="#6d7d83" vector-effect="non-scaling-stroke" d="   M 363.97 713.02   L 334.13 713.28"/>
<path stroke="#98c1c3" vector-effect="non-scaling-stroke" d="   M 334.02 682.75   L 348.24 682.56   A 0.73 0.73 0.0 0 0 348.96 681.83   L 348.96 668.36   A 0.63 0.63 0.0 0 0 348.33 667.73   L 334.02 667.66"/>
<path stroke="#7b6801" vector-effect="non-scaling-stroke" d="   M 454.83 862.80   Q 454.94 863.44 454.86 864.04   Q 454.80 864.58 454.40 864.76   Q 454.00 864.93 453.48 864.84"/>
<path stroke="#73602e" vector-effect="non-scaling-stroke" d="   M 453.48 864.84   L 440.35 864.94   A 0.48 0.48 0.0 0 0 439.88 865.42   L 439.88 879.41   A 0.54 0.54 0.0 0 1 439.34 879.95   L 425.64 879.95   A 0.86 0.86 0.0 0 0 424.78 880.81   L 424.78 894.39   A 0.70 0.70 0.0 0 0 425.48 895.09   L 469.34 895.09   A 0.81 0.80 -0.0 0 0 470.15 894.29   L 470.15 835.06   A 0.59 0.59 0.0 0 0 469.56 834.47   L 455.31 834.47   A 0.36 0.36 0.0 0 0 454.95 834.83   L 454.83 862.80"/>
<path stroke="#eec82e" vector-effect="non-scaling-stroke" d="   M 453.48 864.84   Q 448.30 866.89 442.99 867.13   A 0.78 0.78 0.0 0 0 442.25 867.84   L 441.24 879.62   A 1.02 1.02 0.0 0 1 440.38 880.54   L 427.50 882.52   A 0.82 0.82 0.0 0 0 426.81 883.33   L 426.81 890.45   A 2.18 2.18 0.0 0 0 428.99 892.63   L 467.10 892.63   A 0.79 0.78 89.6 0 0 467.88 891.83   Q 467.83 888.44 467.71 884.79   C 467.54 879.32 468.53 872.00 468.36 867.43   Q 467.88 854.58 467.43 839.03   A 1.70 1.69 -0.9 0 0 465.73 837.39   L 457.92 837.39   A 1.06 1.06 0.0 0 0 456.86 838.44   C 456.75 847.02 457.36 855.10 454.83 862.80"/>
<path stroke="#597978" vector-effect="non-scaling-stroke" d="   M 637.23 667.20   L 637.16 682.75"/>
<path stroke="#3f484b" vector-effect="non-scaling-stroke" d="   M 637.16 682.75   L 637.18 712.99"/>
<path stroke="#2e3538" vector-effect="non-scaling-stroke" d="   M 637.18 712.99   L 637.40 726.98   A 0.99 0.99 0.0 0 0 638.39 727.95   L 666.71 727.95   A 0.91 0.91 0.0 0 0 667.62 727.04   L 667.60 705.96"/>
<path stroke="#3f484b" vector-effect="non-scaling-stroke" d="   M 667.60 705.96   L 667.58 652.77   A 0.59 0.59 0.0 0 0 666.99 652.18   L 637.93 652.18   A 0.66 0.66 0.0 0 0 637.27 652.84   L 637.23 667.20"/>
<path stroke="#6d7d83" vector-effect="non-scaling-stroke" d="   M 667.60 705.96   L 667.51 711.70   A 1.33 1.33 0.0 0 1 666.18 713.01   L 637.18 712.99"/>
<path stroke="#98c1c3" vector-effect="non-scaling-stroke" d="   M 637.16 682.75   L 651.13 682.50   A 1.19 1.19 0.0 0 0 652.30 681.31   L 652.30 668.74   A 1.17 1.17 0.0 0 0 651.16 667.57   L 637.23 667.20"/>
<path stroke="#7b6801" vector-effect="non-scaling-stroke" d="   M 546.11 792.91   L 546.07 864.08   A 0.84 0.83 -0.7 0 1 545.25 864.91   L 541.56 864.96"/>
<path stroke="#73602e" vector-effect="non-scaling-stroke" d="   M 541.56 864.96   L 531.89 864.91   A 1.03 1.03 0.0 0 0 530.85 865.94   L 530.85 879.25   A 0.65 0.65 0.0 0 1 530.20 879.90   L 516.81 879.90   A 0.93 0.93 0.0 0 0 515.88 880.83   L 515.88 894.48   A 0.63 0.63 0.0 0 0 516.51 895.11   L 561.75 895.11   A 0.30 0.30 0.0 0 0 562.05 894.81   L 562.02 856.52"/>
<path stroke="#7b6801" vector-effect="non-scaling-stroke" d="   M 562.02 856.52   L 562.00 801.09"/>
<path stroke="#73602e" vector-effect="non-scaling-stroke" d="   M 562.00 801.09   L 562.03 789.33   A 0.48 0.48 0.0 0 0 561.55 788.85   L 546.70 788.85   A 0.51 0.51 0.0 0 0 546.19 789.35   L 546.11 792.91"/>
<path stroke="#eec82e" vector-effect="non-scaling-stroke" d="   M 562.00 801.09   L 558.87 791.93   A 0.81 0.79 -5.4 0 0 558.23 791.41   Q 551.85 790.56 546.11 792.91"/>
<path stroke="#eec82e" vector-effect="non-scaling-stroke" d="   M 562.02 856.52   Q 559.46 861.04 559.72 866.42   Q 560.34 879.55 559.95 891.71   A 0.97 0.96 89.4 0 1 559.04 892.65   Q 554.66 892.94 548.10 893.15   C 538.67 893.45 527.94 892.51 519.10 892.63   A 0.79 0.78 88.1 0 1 518.31 891.88   L 517.86 883.17   A 1.05 1.04 -6.2 0 1 518.74 882.09   L 532.04 880.06   A 1.06 1.06 0.0 0 0 532.93 879.10   L 533.89 867.91   A 0.86 0.85 -88.4 0 1 534.70 867.13   Q 538.33 866.96 541.56 864.96"/>
</g>
<path xmlns="http://www.w3.org/2000/svg" fill="#ffffff" d="   M 1024.00 0.00   L 1024.00 1024.00   L 0.00 1024.00   L 0.00 0.00   L 1024.00 0.00   Z   M 469.82 227.75   L 455.43 227.79   A 0.50 0.50 0.0 0 0 454.93 228.29   L 454.93 302.82   A 0.50 0.49 0.0 0 0 455.43 303.31   L 469.77 303.33   Q 469.80 303.35 469.83 303.36   L 469.81 318.09   A 0.56 0.56 0.0 0 1 469.25 318.65   L 455.31 318.65   A 0.34 0.34 0.0 0 0 454.97 318.99   L 454.97 363.57   A 0.45 0.45 0.0 0 0 455.42 364.02   L 469.99 364.09   Q 469.90 364.08 469.80 364.07   L 469.79 530.40   A 0.47 0.47 0.0 0 1 469.32 530.87   L 455.60 530.87   A 0.56 0.56 0.0 0 0 455.04 531.43   L 455.04 545.66   A 0.51 0.51 0.0 0 1 454.53 546.17   L 425.37 546.17   A 0.28 0.28 0.0 0 0 425.09 546.45   L 425.09 561.35   Q 425.00 561.24 424.54 561.33   L 410.34 561.29   A 0.42 0.42 0.0 0 0 409.92 561.71   L 409.92 576.26   A 0.34 0.33 90.0 0 1 409.59 576.60   L 394.70 576.60   A 0.70 0.70 0.0 0 0 394.00 577.30   L 394.00 606.25   A 0.64 0.64 0.0 0 1 393.36 606.89   L 379.64 606.89   A 0.61 0.60 -90.0 0 0 379.04 607.50   L 379.04 651.57   A 0.55 0.54 90.0 0 1 378.50 652.12   L 364.55 652.12   A 0.53 0.52 -90.0 0 1 364.03 651.59   L 364.03 637.70   A 0.61 0.60 -0.0 0 0 363.42 637.10   L 334.66 637.10   A 0.63 0.63 0.0 0 0 334.03 637.73   L 334.03 651.10   A 0.97 0.97 0.0 0 1 333.06 652.07   L 319.57 652.07   A 0.66 0.65 -0.0 0 0 318.91 652.72   L 318.91 727.48   A 0.42 0.42 0.0 0 0 319.33 727.90   L 333.19 727.90   A 0.81 0.81 0.0 0 1 334.00 728.71   L 334.00 742.68   A 0.55 0.54 0.0 0 0 334.55 743.22   L 348.39 743.22   A 0.55 0.55 0.0 0 1 348.94 743.77   L 348.94 758.05   A 0.58 0.58 0.0 0 1 348.36 758.63   L 334.57 758.63   A 0.53 0.52 90.0 0 0 334.05 759.16   L 334.05 773.37   A 0.46 0.45 -90.0 0 1 333.60 773.83   L 319.47 773.83   A 0.56 0.56 0.0 0 0 318.91 774.39   L 318.91 803.70   A 0.42 0.42 0.0 0 0 319.33 804.12   L 333.57 804.12   A 0.56 0.56 0.0 0 1 334.13 804.68   L 334.13 818.66   A 0.57 0.56 -90.0 0 0 334.69 819.23   L 348.42 819.23   A 0.61 0.61 0.0 0 1 349.03 819.84   L 349.03 834.15   A 0.30 0.29 -90.0 0 0 349.32 834.45   L 439.39 834.45   A 0.47 0.47 0.0 0 1 439.86 834.92   L 439.86 864.28   A 0.46 0.46 0.0 0 1 439.40 864.74   L 425.36 864.74   A 0.54 0.54 0.0 0 0 424.82 865.28   L 424.82 879.46   A 0.58 0.58 0.0 0 1 424.24 880.04   L 410.36 880.04   A 0.45 0.44 -0.0 0 0 409.91 880.48   L 409.91 909.38   A 0.71 0.71 0.0 0 0 410.62 910.09   L 484.64 910.09   A 0.64 0.64 0.0 0 0 485.28 909.45   L 485.28 819.80   A 0.57 0.56 -90.0 0 1 485.84 819.23   L 515.29 819.23   A 0.60 0.59 -0.5 0 0 515.89 818.63   L 515.86 804.05   Q 516.44 803.75 516.07 804.04   L 530.42 804.10   A 0.50 0.50 0.0 0 1 530.92 804.60   L 530.92 864.30   A 0.52 0.51 -90.0 0 1 530.41 864.82   L 516.50 864.82   A 0.62 0.61 0.0 0 0 515.88 865.43   L 515.88 879.53   A 0.45 0.44 -90.0 0 1 515.44 879.98   L 501.35 879.98   A 0.46 0.46 0.0 0 0 500.89 880.44   L 500.89 909.73   A 0.35 0.35 0.0 0 0 501.24 910.08   L 576.35 910.08   A 0.70 0.70 0.0 0 0 577.05 909.38   L 577.05 774.47   A 0.63 0.63 0.0 0 1 577.68 773.84   L 591.03 773.84   A 0.78 0.77 -90.0 0 0 591.80 773.06   L 591.80 759.32   A 0.65 0.64 -0.0 0 1 592.45 758.68   L 606.43 758.68   A 0.68 0.67 90.0 0 0 607.10 758.00   L 607.01 743.46   Q 607.15 743.40 607.21 743.18   L 621.52 743.19   A 0.56 0.56 0.0 0 0 622.08 742.63   L 622.08 728.57   A 0.63 0.63 0.0 0 1 622.71 727.94   L 636.35 727.94   A 0.83 0.82 -0.0 0 1 637.18 728.76   L 637.18 742.67   A 0.51 0.51 0.0 0 0 637.69 743.18   L 667.29 743.18   A 0.36 0.35 -0.0 0 0 667.65 742.83   L 667.65 728.29   A 0.38 0.38 0.0 0 1 668.03 727.91   L 682.44 727.91   A 0.68 0.68 0.0 0 0 683.12 727.23   L 683.12 713.62   A 0.56 0.55 90.0 0 1 683.67 713.06   L 743.21 713.06   A 0.56 0.55 90.0 0 1 743.76 713.62   L 743.76 727.32   A 0.67 0.67 0.0 0 0 744.43 727.99   L 758.12 727.99   A 0.68 0.67 -0.0 0 1 758.80 728.66   L 758.80 742.62   A 0.59 0.59 0.0 0 0 759.39 743.21   L 788.04 743.21   A 0.53 0.53 0.0 0 0 788.57 742.68   L 788.64 727.95   L 788.87 727.89   L 803.31 727.92   A 0.59 0.58 -0.0 0 0 803.90 727.34   L 803.90 652.45   A 0.37 0.37 0.0 0 0 803.53 652.08   L 789.57 652.08   A 0.75 0.74 -0.0 0 1 788.82 651.34   L 788.82 637.49   A 0.41 0.41 0.0 0 0 788.41 637.08   L 759.34 637.08   A 0.56 0.55 90.0 0 0 758.79 637.64   L 758.79 651.52   A 0.61 0.61 0.0 0 1 758.18 652.13   L 744.30 652.13   A 0.55 0.55 0.0 0 1 743.75 651.58   L 743.75 607.37   A 0.49 0.48 90.0 0 0 743.27 606.88   L 727.95 606.89   Q 727.99 606.88 728.03 606.87   L 728.05 577.13   A 0.43 0.43 0.0 0 0 727.62 576.70   L 713.08 576.70   Q 712.95 576.69 712.84 576.44   L 712.85 561.86   A 0.55 0.55 0.0 0 0 712.30 561.31   L 698.57 561.29   L 697.96 561.04   L 698.03 379.36   A 0.40 0.40 0.0 0 0 697.63 378.96   L 683.63 378.96   A 0.57 0.57 0.0 0 1 683.06 378.39   L 683.06 364.71   A 0.64 0.63 -0.0 0 1 683.70 364.08   L 697.44 364.08   A 0.58 0.58 0.0 0 0 698.02 363.50   L 698.02 319.10   A 0.43 0.43 0.0 0 0 697.59 318.67   L 683.54 318.67   A 0.51 0.51 0.0 0 1 683.03 318.16   L 683.03 303.98   A 0.68 0.68 0.0 0 0 682.35 303.30   L 667.78 303.30   A 0.63 0.63 0.0 0 1 667.15 302.67   L 667.15 273.69   A 0.79 0.79 0.0 0 0 666.36 272.90   L 653.12 272.90   A 0.78 0.78 0.0 0 1 652.34 272.12   L 652.34 243.35   A 0.36 0.36 0.0 0 0 651.98 242.99   L 637.50 242.99   A 0.40 0.40 0.0 0 1 637.10 242.59   L 637.10 228.35   A 0.58 0.57 90.0 0 0 636.53 227.77   L 622.64 227.77   A 0.58 0.58 0.0 0 1 622.06 227.19   L 622.06 212.91   A 0.59 0.59 0.0 0 0 621.47 212.32   L 591.45 212.55   Q 591.30 212.35 591.33 212.22   L 591.27 197.59   A 0.51 0.51 0.0 0 0 590.76 197.08   L 561.74 197.04   Q 561.60 197.02 561.45 196.99   L 561.45 182.41   A 0.39 0.39 0.0 0 0 561.06 182.02   L 531.45 182.02   A 0.51 0.50 0.0 0 1 530.94 181.52   L 530.94 152.44   A 0.61 0.60 90.0 0 0 530.34 151.83   L 516.57 151.83   A 0.58 0.57 90.0 0 1 516.00 151.25   L 516.00 121.98   A 0.60 0.60 0.0 0 0 515.40 121.38   L 500.80 121.38   A 0.58 0.58 0.0 0 1 500.22 120.80   L 500.22 106.67   A 0.51 0.51 0.0 0 0 499.71 106.16   L 455.37 106.16   A 0.38 0.38 0.0 0 0 454.99 106.54   L 454.99 120.62   A 0.84 0.83 -0.0 0 1 454.15 121.45   L 440.31 121.45   A 0.40 0.40 0.0 0 0 439.91 121.85   L 439.91 166.35   A 0.53 0.52 0.0 0 0 440.44 166.87   L 454.41 166.87   A 0.60 0.60 0.0 0 1 455.01 167.47   L 455.01 181.48   A 0.56 0.56 0.0 0 0 455.57 182.04   L 469.09 182.04   A 0.68 0.68 0.0 0 1 469.77 182.72   L 469.82 227.75   Z"/>
<path xmlns="http://www.w3.org/2000/svg" fill="#000000" d="   M 561.45 196.99   L 531.47 196.95   L 530.96 196.75   L 531.01 183.09   A 1.11 1.11 0.0 0 0 529.90 181.98   L 516.82 181.98   A 0.84 0.84 0.0 0 1 515.98 181.14   L 515.98 152.71   A 0.97 0.96 -90.0 0 0 515.02 151.74   L 501.40 151.74   A 0.99 0.99 0.0 0 1 500.41 150.76   L 500.35 137.04   L 500.29 122.88   A 1.61 1.61 0.0 0 0 498.68 121.27   L 456.14 121.27   A 1.23 1.22 -0.0 0 0 454.91 122.49   L 454.91 165.06   A 1.73 1.72 0.3 0 0 456.62 166.78   Q 463.51 166.83 468.00 166.90   Q 469.48 166.92 470.09 167.76   L 469.98 180.66   A 1.21 1.21 0.0 0 0 471.19 181.88   L 483.92 181.88   A 0.96 0.96 0.0 0 1 484.88 182.84   L 484.87 227.45   Q 484.81 227.53 484.75 227.61   L 469.82 227.75   L 469.77 182.72   A 0.68 0.68 0.0 0 0 469.09 182.04   L 455.57 182.04   A 0.56 0.56 0.0 0 1 455.01 181.48   L 455.01 167.47   A 0.60 0.60 0.0 0 0 454.41 166.87   L 440.44 166.87   A 0.53 0.52 0.0 0 1 439.91 166.35   L 439.91 121.85   A 0.40 0.40 0.0 0 1 440.31 121.45   L 454.15 121.45   A 0.84 0.83 0.0 0 0 454.99 120.62   L 454.99 106.54   A 0.38 0.38 0.0 0 1 455.37 106.16   L 499.71 106.16   A 0.51 0.51 0.0 0 1 500.22 106.67   L 500.22 120.80   A 0.58 0.58 0.0 0 0 500.80 121.38   L 515.40 121.38   A 0.60 0.60 0.0 0 1 516.00 121.98   L 516.00 151.25   A 0.58 0.57 -90.0 0 0 516.57 151.83   L 530.34 151.83   A 0.61 0.60 -90.0 0 1 530.94 152.44   L 530.94 181.52   A 0.51 0.50 0.0 0 0 531.45 182.02   L 561.06 182.02   A 0.39 0.39 0.0 0 1 561.45 182.41   L 561.45 196.99   Z"/>
<path xmlns="http://www.w3.org/2000/svg" fill="#6e461b" d="   M 500.35 137.04   L 486.04 136.96   A 0.75 0.75 0.0 0 0 485.29 137.71   L 485.29 150.54   A 1.37 1.37 0.0 0 1 483.92 151.91   L 470.73 151.91   A 0.66 0.66 0.0 0 0 470.07 152.57   L 470.07 166.46   A 0.65 0.65 0.0 0 0 470.72 167.11   L 482.05 167.12   Q 476.78 167.31 471.52 167.24   Q 470.87 167.24 470.09 167.76   Q 469.48 166.92 468.00 166.90   Q 463.51 166.83 456.62 166.78   A 1.73 1.72 0.3 0 1 454.91 165.06   L 454.91 122.49   A 1.23 1.22 -0.0 0 1 456.14 121.27   L 498.68 121.27   A 1.61 1.61 0.0 0 1 500.29 122.88   L 500.35 137.04   Z"/>
<path xmlns="http://www.w3.org/2000/svg" fill="#906e30" d="   M 500.35 137.04   L 500.41 150.76   A 0.99 0.99 0.0 0 0 501.40 151.74   L 515.02 151.74   A 0.97 0.96 -90.0 0 1 515.98 152.71   L 515.98 181.14   A 0.84 0.84 0.0 0 0 516.82 181.98   L 529.90 181.98   A 1.11 1.11 0.0 0 1 531.01 183.09   L 530.96 196.75   Q 528.27 197.37 526.75 197.29   Q 513.47 196.64 500.98 197.06   A 1.08 1.08 0.0 0 1 499.87 195.92   Q 500.77 181.70 499.56 167.33   A 0.57 0.57 0.0 0 0 498.98 166.81   L 482.05 167.12   L 470.72 167.11   A 0.65 0.65 0.0 0 1 470.07 166.46   L 470.07 152.57   A 0.66 0.66 0.0 0 1 470.73 151.91   L 483.92 151.91   A 1.37 1.37 0.0 0 0 485.29 150.54   L 485.29 137.71   A 0.75 0.75 0.0 0 1 486.04 136.96   L 500.35 137.04   Z"/>
<path xmlns="http://www.w3.org/2000/svg" fill="#ba9e47" d="   M 530.96 196.75   L 531.47 196.95   L 531.21 197.27   A 1.07 1.03 65.0 0 0 530.97 197.97   L 531.28 212.19   L 500.95 212.02   A 0.85 0.84 89.0 0 0 500.10 212.91   L 500.81 226.64   A 1.22 1.21 89.8 0 1 499.56 227.91   L 484.87 227.45   L 484.88 182.84   A 0.96 0.96 0.0 0 0 483.92 181.88   L 471.19 181.88   A 1.21 1.21 0.0 0 1 469.98 180.66   L 470.09 167.76   Q 470.87 167.24 471.52 167.24   Q 476.78 167.31 482.05 167.12   L 498.98 166.81   A 0.57 0.57 0.0 0 1 499.56 167.33   Q 500.77 181.70 499.87 195.92   A 1.08 1.08 0.0 0 0 500.98 197.06   Q 513.47 196.64 526.75 197.29   Q 528.27 197.37 530.96 196.75   Z"/>
<path xmlns="http://www.w3.org/2000/svg" fill="#000000" d="   M 591.33 212.22   L 562.11 212.23   A 0.39 0.38 -0.0 0 1 561.72 211.85   L 561.74 197.04   L 590.76 197.08   A 0.51 0.51 0.0 0 1 591.27 197.59   L 591.33 212.22   Z"/>
<path xmlns="http://www.w3.org/2000/svg" fill="#e5c05b" d="   M 561.45 196.99   Q 561.60 197.02 561.74 197.04   L 561.72 211.85   A 0.39 0.38 0.0 0 0 562.11 212.23   L 591.33 212.22   Q 591.30 212.35 591.45 212.55   L 591.48 227.17   A 0.45 0.45 0.0 0 0 591.93 227.62   L 606.37 227.62   A 0.55 0.55 0.0 0 1 606.92 228.17   L 606.92 242.17   A 0.73 0.73 0.0 0 0 607.65 242.90   L 621.49 242.90   A 0.65 0.65 0.0 0 1 622.14 243.55   L 622.14 257.25   A 0.48 0.48 0.0 0 0 622.62 257.73   L 636.60 257.73   A 0.57 0.57 0.0 0 1 637.17 258.30   L 637.17 272.18   A 0.74 0.74 0.0 0 0 637.91 272.92   L 650.93 272.92   A 1.46 1.45 90.0 0 1 652.38 274.38   L 652.38 302.88   A 0.40 0.39 90.0 0 1 651.99 303.28   L 607.06 303.38   L 606.70 289.28   A 1.30 1.29 -0.9 0 0 605.40 288.03   L 593.00 288.03   A 1.07 1.07 0.0 0 1 591.93 286.96   L 591.93 274.06   A 0.88 0.88 0.0 0 0 591.05 273.18   L 577.86 273.18   A 1.04 1.03 -0.0 0 1 576.82 272.15   L 576.82 243.69   A 0.72 0.72 0.0 0 0 576.10 242.97   L 562.55 242.97   A 1.06 1.05 90.0 0 1 561.50 241.91   L 561.50 228.96   A 0.88 0.87 -0.0 0 0 560.62 228.09   L 547.86 228.09   A 1.72 1.72 0.0 0 1 546.14 226.37   L 546.14 213.29   A 0.92 0.91 -89.7 0 0 545.24 212.37   L 531.28 212.19   L 530.97 197.97   A 1.07 1.03 65.0 0 1 531.21 197.27   L 531.47 196.95   L 561.45 196.99   Z"/>
<path xmlns="http://www.w3.org/2000/svg" fill="#f1e287" d="   M 531.28 212.19   L 545.24 212.37   A 0.92 0.91 -89.7 0 1 546.14 213.29   L 546.14 226.37   A 1.72 1.72 0.0 0 0 547.86 228.09   L 560.62 228.09   A 0.88 0.87 0.0 0 1 561.50 228.96   L 561.50 241.91   A 1.06 1.05 90.0 0 0 562.55 242.97   L 576.10 242.97   A 0.72 0.72 0.0 0 1 576.82 243.69   L 576.82 272.15   A 1.04 1.03 -0.0 0 0 577.86 273.18   L 591.05 273.18   A 0.88 0.88 0.0 0 1 591.93 274.06   L 591.93 286.96   A 1.07 1.07 0.0 0 0 593.00 288.03   L 605.40 288.03   A 1.30 1.29 -0.9 0 1 606.70 289.28   L 607.06 303.38   L 500.30 303.35   Q 499.21 292.67 500.25 281.80   Q 500.64 277.83 500.20 274.12   A 1.05 1.03 -4.7 0 0 499.11 273.21   Q 495.26 273.41 486.69 273.50   Q 484.24 273.53 484.27 270.78   C 484.42 260.69 485.44 248.74 484.61 237.46   C 484.36 234.08 484.62 230.92 484.75 227.61   Q 484.81 227.53 484.87 227.45   L 499.56 227.91   A 1.22 1.21 89.8 0 0 500.81 226.64   L 500.10 212.91   A 0.85 0.84 89.0 0 1 500.95 212.02   L 531.28 212.19   Z"/>
<path xmlns="http://www.w3.org/2000/svg" fill="#000000" d="   M 697.96 561.04   L 697.52 561.39   L 683.29 561.15   A 0.41 0.41 0.0 0 1 682.88 560.74   L 682.88 547.04   A 0.73 0.73 0.0 0 0 682.15 546.31   L 668.22 546.31   A 0.63 0.62 -2.5 0 1 667.59 545.74   L 667.48 544.48   L 667.55 531.55   A 0.58 0.57 -0.0 0 1 668.13 530.98   L 681.87 530.98   A 0.96 0.96 0.0 0 0 682.83 530.02   L 682.83 379.92   A 0.82 0.82 0.0 0 0 682.32 379.16   Q 681.66 378.89 680.55 379.18   L 622.63 379.19   L 501.30 379.17   L 485.58 379.08   A 0.57 0.57 0.0 0 0 485.00 379.65   L 485.00 393.47   A 0.95 0.95 0.0 0 0 485.96 394.42   L 511.27 394.40   L 515.37 394.39   A 0.63 0.63 0.0 0 1 516.00 395.02   L 516.00 409.28   A 0.60 0.59 -90.0 0 0 516.59 409.88   L 530.23 409.88   A 0.66 0.65 89.6 0 1 530.88 410.53   L 530.98 424.32   A 0.52 0.45 62.3 0 1 530.93 424.54   Q 530.57 425.16 530.17 425.03   L 516.09 424.67   L 515.91 410.86   A 0.75 0.75 0.0 0 0 515.16 410.12   L 500.58 410.10   L 485.19 409.90   A 0.24 0.24 0.0 0 0 484.94 410.14   L 484.94 530.80   A 0.28 0.27 90.0 0 1 484.67 531.08   L 470.37 531.08   A 0.54 0.54 0.0 0 0 469.83 531.62   L 469.83 591.07   A 0.56 0.55 90.0 0 1 469.28 591.63   L 455.48 591.63   A 0.61 0.60 -90.0 0 0 454.88 592.24   L 454.88 621.32   A 0.67 0.67 0.0 0 1 454.22 621.99   Q 448.02 622.12 440.51 621.96   Q 439.79 621.95 439.90 621.38   L 439.84 607.57   A 0.52 0.52 0.0 0 0 439.33 607.05   L 425.02 607.02   L 424.97 592.00   A 0.34 0.34 0.0 0 1 425.31 591.65   L 439.39 591.65   A 0.56 0.56 0.0 0 0 439.95 591.09   L 439.95 577.49   A 0.88 0.87 90.0 0 1 440.82 576.61   L 454.44 576.61   A 0.51 0.50 -0.0 0 0 454.95 576.11   L 454.95 562.04   A 0.70 0.70 0.0 0 0 454.25 561.34   L 439.55 561.33   L 425.09 561.35   L 425.09 546.45   A 0.28 0.28 0.0 0 1 425.37 546.17   L 454.53 546.17   A 0.51 0.51 0.0 0 0 455.04 545.66   L 455.04 531.43   A 0.56 0.56 0.0 0 1 455.60 530.87   L 469.32 530.87   A 0.47 0.47 0.0 0 0 469.79 530.40   L 469.80 364.07   L 681.78 364.07   A 1.09 1.08 -0.0 0 0 682.87 362.99   L 682.87 320.31   A 1.39 1.39 0.0 0 0 681.49 318.92   L 620.70 318.57   L 470.92 318.62   A 1.06 1.06 0.0 0 0 469.86 319.68   L 469.89 334.01   L 469.88 348.90   L 469.99 364.09   L 455.42 364.02   A 0.45 0.45 0.0 0 1 454.97 363.57   L 454.97 318.99   A 0.34 0.34 0.0 0 1 455.31 318.65   L 469.25 318.65   A 0.56 0.56 0.0 0 0 469.81 318.09   L 469.83 303.36   L 484.92 303.40   L 500.30 303.35   L 607.06 303.38   L 651.99 303.28   A 0.40 0.39 90.0 0 0 652.38 302.88   L 652.38 274.38   A 1.46 1.45 90.0 0 0 650.93 272.92   L 637.91 272.92   A 0.74 0.74 0.0 0 1 637.17 272.18   L 637.17 258.30   A 0.57 0.57 0.0 0 0 636.60 257.73   L 622.62 257.73   A 0.48 0.48 0.0 0 1 622.14 257.25   L 622.14 243.55   A 0.65 0.65 0.0 0 0 621.49 242.90   L 607.65 242.90   A 0.73 0.73 0.0 0 1 606.92 242.17   L 606.92 228.17   A 0.55 0.55 0.0 0 0 606.37 227.62   L 591.93 227.62   A 0.45 0.45 0.0 0 1 591.48 227.17   L 591.45 212.55   L 621.47 212.32   A 0.59 0.59 0.0 0 1 622.06 212.91   L 622.06 227.19   A 0.58 0.58 0.0 0 0 622.64 227.77   L 636.53 227.77   A 0.58 0.57 -90.0 0 1 637.10 228.35   L 637.10 242.59   A 0.40 0.40 0.0 0 0 637.50 242.99   L 651.98 242.99   A 0.36 0.36 0.0 0 1 652.34 243.35   L 652.34 272.12   A 0.78 0.78 0.0 0 0 653.12 272.90   L 666.36 272.90   A 0.79 0.79 0.0 0 1 667.15 273.69   L 667.15 302.67   A 0.63 0.63 0.0 0 0 667.78 303.30   L 682.35 303.30   A 0.68 0.68 0.0 0 1 683.03 303.98   L 683.03 318.16   A 0.51 0.51 0.0 0 0 683.54 318.67   L 697.59 318.67   A 0.43 0.43 0.0 0 1 698.02 319.10   L 698.02 363.50   A 0.58 0.58 0.0 0 1 697.44 364.08   L 683.70 364.08   A 0.64 0.63 0.0 0 0 683.06 364.71   L 683.06 378.39   A 0.57 0.57 0.0 0 0 683.63 378.96   L 697.63 378.96   A 0.40 0.40 0.0 0 1 698.03 379.36   L 697.96 561.04   Z"/>
<path xmlns="http://www.w3.org/2000/svg" fill="#f9f0b4" d="   M 484.75 227.61   C 484.62 230.92 484.36 234.08 484.61 237.46   C 485.44 248.74 484.42 260.69 484.27 270.78   Q 484.24 273.53 486.69 273.50   Q 495.26 273.41 499.11 273.21   A 1.05 1.03 -4.7 0 1 500.20 274.12   Q 500.64 277.83 500.25 281.80   Q 499.21 292.67 500.30 303.35   L 484.92 303.40   L 485.01 288.93   A 0.51 0.51 0.0 0 0 484.50 288.41   L 469.76 288.29   L 469.82 227.75   L 484.75 227.61   Z"/>
<path xmlns="http://www.w3.org/2000/svg" fill="#000000" d="   M 469.82 227.75   L 469.76 288.29   L 469.77 303.33   L 455.43 303.31   A 0.50 0.49 0.0 0 1 454.93 302.82   L 454.93 228.29   A 0.50 0.50 0.0 0 1 455.43 227.79   L 469.82 227.75   Z"/>
<path xmlns="http://www.w3.org/2000/svg" fill="#ba9e47" d="   M 484.92 303.40   L 469.83 303.36   Q 469.80 303.35 469.77 303.33   L 469.76 288.29   L 484.50 288.41   A 0.51 0.51 0.0 0 1 485.01 288.93   L 484.92 303.40   Z"/>
<path xmlns="http://www.w3.org/2000/svg" fill="#03a3e8" d="   M 620.70 318.57   Q 622.26 321.77 622.08 323.29   Q 621.43 328.80 622.11 334.02   L 469.89 334.01   L 469.86 319.68   A 1.06 1.06 0.0 0 1 470.92 318.62   L 620.70 318.57   Z"/>
<path xmlns="http://www.w3.org/2000/svg" fill="#217fd3" d="   M 469.80 364.07   Q 469.90 364.08 469.99 364.09   L 469.88 348.90   L 651.81 348.91   A 0.63 0.63 0.0 0 0 652.44 348.28   L 652.44 334.51   A 0.46 0.46 0.0 0 0 651.98 334.05   L 622.11 334.02   Q 621.43 328.80 622.08 323.29   Q 622.26 321.77 620.70 318.57   L 681.49 318.92   A 1.39 1.39 0.0 0 1 682.87 320.31   L 682.87 362.99   A 1.09 1.08 -0.0 0 1 681.78 364.07   L 469.80 364.07   Z"/>
<path xmlns="http://www.w3.org/2000/svg" fill="#b1f1ef" d="   M 622.11 334.02   L 651.98 334.05   A 0.46 0.46 0.0 0 1 652.44 334.51   L 652.44 348.28   A 0.63 0.63 0.0 0 1 651.81 348.91   L 469.88 348.90   L 469.89 334.01   L 622.11 334.02   Z"/>
<path xmlns="http://www.w3.org/2000/svg" fill="#f9f0b4" d="   M 501.30 379.17   Q 499.12 385.40 500.65 391.18   A 1.82 1.81 79.9 0 0 502.58 392.53   Q 507.17 392.09 511.27 394.40   L 485.96 394.42   A 0.95 0.95 0.0 0 1 485.00 393.47   L 485.00 379.65   A 0.57 0.57 0.0 0 1 485.58 379.08   L 501.30 379.17   Z"/>
<path xmlns="http://www.w3.org/2000/svg" fill="#f1e287" d="   M 622.63 379.19   L 621.80 393.19   A 1.17 1.16 1.8 0 0 622.97 394.43   L 636.26 394.43   A 0.80 0.79 -90.0 0 1 637.05 395.23   Q 636.86 470.53 637.13 557.75   Q 637.14 559.84 636.84 560.65   A 1.07 1.06 9.6 0 1 635.83 561.36   L 622.60 561.36   A 0.64 0.63 90.0 0 0 621.97 562.00   L 621.97 605.26   A 1.31 1.31 0.0 0 1 620.66 606.57   L 607.88 606.57   A 1.02 1.02 0.0 0 0 606.86 607.59   L 606.86 635.43   A 1.33 1.33 0.0 0 1 605.53 636.76   L 592.61 636.76   A 1.05 1.05 0.0 0 0 591.56 637.81   L 591.56 666.89   A 0.81 0.80 -0.0 0 1 590.75 667.69   L 577.97 667.69   A 1.34 1.33 90.0 0 0 576.64 669.03   L 576.64 681.29   A 1.35 1.35 0.0 0 1 575.29 682.64   L 562.62 682.64   A 0.90 0.90 0.0 0 0 561.72 683.54   L 561.72 697.24   A 0.69 0.69 0.0 0 1 561.03 697.93   L 547.19 697.93   A 1.20 1.20 0.0 0 0 545.99 699.13   L 545.99 711.67   A 0.99 0.99 0.0 0 1 545.00 712.66   L 531.98 712.66   A 1.05 1.04 0.0 0 0 530.93 713.70   L 530.93 727.13   A 0.80 0.80 0.0 0 1 530.13 727.93   L 516.77 727.93   A 1.05 1.05 0.0 0 0 515.72 728.98   L 515.72 742.07   A 1.09 1.08 -90.0 0 1 514.64 743.16   L 501.86 743.16   A 1.15 1.15 0.0 0 0 500.71 744.31   L 500.71 757.73   A 0.96 0.96 0.0 0 1 499.75 758.69   L 470.47 758.69   A 0.75 0.75 0.0 0 0 469.72 759.44   L 469.72 772.36   A 1.41 1.41 0.0 0 1 468.31 773.77   L 426.26 773.77   A 1.14 1.14 0.0 0 0 425.12 774.91   L 425.12 788.13   A 0.86 0.86 0.0 0 1 424.26 788.99   Q 404.66 788.86 387.25 788.51   Q 383.21 788.43 379.14 788.91   L 364.79 788.92   A 0.89 0.89 0.0 0 1 363.90 788.03   L 363.90 774.44   A 0.58 0.58 0.0 0 0 363.32 773.86   L 349.15 773.95   L 349.23 759.35   A 0.52 0.52 0.0 0 1 349.75 758.84   L 363.96 758.79   L 377.50 758.20   A 1.51 1.51 0.0 0 0 378.95 756.72   L 379.16 746.52   A 2.95 2.94 77.5 0 1 380.79 743.95   C 383.76 742.48 390.30 742.62 393.26 742.72   A 0.66 0.65 -89.2 0 0 393.93 742.06   L 393.93 729.28   A 1.27 1.27 0.0 0 1 395.20 728.01   L 408.99 728.01   A 0.78 0.78 0.0 0 0 409.77 727.23   L 409.77 698.83   A 1.17 1.16 0.0 0 1 410.94 697.67   L 423.31 697.67   A 1.29 1.28 87.7 0 0 424.59 696.28   Q 424.05 689.30 425.46 683.60   A 1.31 1.30 6.7 0 1 426.73 682.60   L 438.29 682.60   A 1.38 1.38 0.0 0 0 439.67 681.18   Q 439.32 669.27 439.67 657.42   Q 439.75 654.54 440.63 653.06   A 2.71 2.71 0.0 0 1 442.95 651.72   L 453.32 651.63   A 1.29 1.29 0.0 0 0 454.60 650.37   Q 454.87 638.80 454.85 626.34   Q 454.85 625.10 455.36 623.26   A 0.96 0.95 -0.6 0 1 456.02 622.59   C 459.95 621.46 464.55 621.42 468.40 621.41   A 1.35 1.35 0.0 0 0 469.75 620.06   L 469.75 594.66   A 2.19 2.18 -13.5 0 1 470.95 592.71   C 474.12 591.12 479.68 591.03 483.62 591.19   A 1.05 1.05 0.0 0 0 484.72 590.18   Q 485.04 581.29 484.73 571.59   C 484.37 560.15 484.90 546.89 484.98 536.25   C 484.99 534.25 485.44 530.71 488.50 530.68   Q 488.54 530.68 499.44 530.49   A 0.83 0.83 0.0 0 0 500.25 529.66   L 500.00 460.04   A 3.31 3.03 -42.4 0 1 500.05 459.48   L 500.80 454.94   L 515.99 454.94   L 529.82 454.40   A 0.96 0.96 0.0 0 0 530.75 453.43   L 530.60 426.48   A 2.24 2.20 33.2 0 0 530.40 425.56   L 530.17 425.03   Q 530.57 425.16 530.93 424.54   A 0.52 0.45 62.3 0 0 530.98 424.32   L 530.88 410.53   A 0.66 0.65 89.6 0 0 530.23 409.88   L 516.59 409.88   A 0.60 0.59 90.0 0 1 516.00 409.28   L 516.00 395.02   A 0.63 0.63 0.0 0 0 515.37 394.39   L 511.27 394.40   Q 507.17 392.09 502.58 392.53   A 1.82 1.81 79.9 0 1 500.65 391.18   Q 499.12 385.40 501.30 379.17   L 622.63 379.19   Z   M 577.18 394.52   A 0.35 0.35 0.0 0 0 576.83 394.87   L 576.83 409.59   A 0.35 0.35 0.0 0 1 576.48 409.94   L 562.05 409.94   A 0.35 0.35 0.0 0 0 561.70 410.29   L 561.70 424.49   A 0.35 0.35 0.0 0 0 562.05 424.84   L 576.53 424.84   A 0.35 0.35 0.0 0 0 576.88 424.49   L 576.88 410.39   A 0.35 0.35 0.0 0 1 577.23 410.04   L 606.66 410.04   A 0.35 0.35 0.0 0 0 607.01 409.69   L 607.01 394.87   A 0.35 0.35 0.0 0 0 606.66 394.52   L 577.18 394.52   Z   M 591.55 454.77   L 606.17 454.67   A 0.66 0.65 -90.0 0 0 606.82 454.01   L 606.82 425.64   A 0.49 0.49 0.0 0 0 606.34 425.15   L 591.51 425.04   L 577.19 424.97   A 0.24 0.23 90.0 0 0 576.96 425.21   L 576.96 454.24   A 0.54 0.54 0.0 0 0 577.50 454.78   L 591.55 454.77   Z   M 591.6319 486.3129   A 0.55 0.55 0.0 0 0 591.0829 485.7619   L 577.4229 485.7381   A 0.55 0.55 0.0 0 0 576.8719 486.2871   L 576.8481 499.9471   A 0.55 0.55 0.0 0 0 577.3971 500.4981   L 591.0571 500.5219   A 0.55 0.55 0.0 0 0 591.6081 499.9729   L 591.6319 486.3129   Z   M 576.83 501.30   A 0.51 0.51 0.0 0 0 576.32 500.79   L 516.38 500.79   A 0.51 0.51 0.0 0 0 515.87 501.30   L 515.87 515.22   A 0.51 0.51 0.0 0 0 516.38 515.73   L 576.32 515.73   A 0.51 0.51 0.0 0 0 576.83 515.22   L 576.83 501.30   Z"/>
<path xmlns="http://www.w3.org/2000/svg" fill="#e5c05b" d="   M 680.55 379.18   L 680.31 527.04   A 1.17 1.16 87.3 0 1 679.26 528.20   L 668.82 529.26   A 1.08 1.08 0.0 0 0 668.17 529.57   L 666.48 531.26   A 1.81 1.78 -17.9 0 0 666.00 532.18   C 665.25 536.34 664.88 540.78 667.48 544.48   L 667.59 545.74   A 0.63 0.62 -2.5 0 0 668.22 546.31   L 682.15 546.31   A 0.73 0.73 0.0 0 1 682.88 547.04   L 682.88 560.74   A 0.41 0.41 0.0 0 0 683.29 561.15   L 697.52 561.39   L 698.03 561.77   L 698.03 576.30   A 0.51 0.51 0.0 0 0 698.54 576.81   Q 705.46 576.73 712.42 576.82   Q 712.65 576.82 712.84 576.44   Q 712.95 576.69 713.08 576.70   L 713.06 606.64   A 0.22 0.21 0.0 0 0 713.28 606.85   L 728.03 606.87   Q 727.99 606.88 727.95 606.89   L 728.05 610.13   Q 722.53 608.24 715.69 608.61   A 0.96 0.94 -86.5 0 0 714.81 609.40   L 712.85 621.22   L 712.86 607.87   A 1.01 1.01 0.0 0 0 711.82 606.86   L 697.93 607.29   L 697.52 607.06   Q 697.98 607.28 697.90 606.77   Q 697.70 605.53 697.80 604.33   L 709.47 605.08   A 1.33 1.33 0.0 0 0 710.89 603.84   Q 711.68 592.24 711.03 580.23   A 1.47 1.47 0.0 0 0 709.45 578.85   Q 703.62 579.29 697.59 577.62   A 0.77 0.77 0.0 0 1 697.03 577.00   L 695.32 565.84   A 0.89 0.88 4.2 0 0 694.69 565.12   L 682.13 561.44   A 1.57 1.56 7.1 0 1 681.01 560.01   L 680.48 549.65   A 1.47 1.46 86.9 0 0 678.94 548.26   L 668.05 548.82   A 1.00 1.00 0.0 0 0 667.10 549.86   L 667.58 561.33   L 653.17 561.24   A 0.78 0.78 0.0 0 0 652.38 562.02   L 652.38 576.03   A 0.66 0.66 0.0 0 0 653.04 576.69   L 667.06 576.69   A 0.47 0.47 0.0 0 1 667.53 577.16   L 667.53 636.03   A 1.01 1.00 -90.0 0 1 666.53 637.04   L 637.72 637.04   A 0.58 0.58 0.0 0 0 637.14 637.62   L 637.14 651.06   A 1.05 1.04 90.0 0 1 636.10 652.11   L 622.74 652.11   A 0.60 0.60 0.0 0 0 622.14 652.71   L 622.14 712.22   A 0.62 0.62 0.0 0 1 621.52 712.84   L 607.46 712.84   A 0.39 0.39 0.0 0 0 607.07 713.23   Q 606.82 734.20 606.81 742.25   Q 606.81 742.91 607.21 743.18   Q 607.15 743.40 607.01 743.46   Q 606.96 743.37 606.81 743.25   A 0.39 0.33 58.3 0 0 606.60 743.18   L 592.31 743.32   A 0.55 0.54 90.0 0 0 591.77 743.87   L 591.77 757.97   A 0.74 0.74 0.0 0 1 591.03 758.71   L 577.36 758.71   A 0.57 0.57 0.0 0 0 576.79 759.28   L 576.79 773.31   A 0.58 0.58 0.0 0 1 576.21 773.89   L 546.82 773.89   A 0.54 0.54 0.0 0 0 546.28 774.43   L 546.28 788.29   A 0.57 0.57 0.0 0 1 545.71 788.86   L 516.59 788.86   A 0.54 0.53 90.0 0 0 516.06 789.40   L 516.07 804.04   Q 516.44 803.75 515.86 804.05   L 455.26 804.06   Q 453.49 810.52 453.72 816.28   A 0.61 0.61 0.0 0 1 453.24 816.90   Q 449.61 817.65 446.25 817.45   Q 436.75 816.88 428.89 817.04   C 415.68 817.30 401.57 816.68 391.60 816.86   Q 387.11 816.94 379.06 818.60   L 379.14 788.91   Q 383.21 788.43 387.25 788.51   Q 404.66 788.86 424.26 788.99   A 0.86 0.86 0.0 0 0 425.12 788.13   L 425.12 774.91   A 1.14 1.14 0.0 0 1 426.26 773.77   L 468.31 773.77   A 1.41 1.41 0.0 0 0 469.72 772.36   L 469.72 759.44   A 0.75 0.75 0.0 0 1 470.47 758.69   L 499.75 758.69   A 0.96 0.96 0.0 0 0 500.71 757.73   L 500.71 744.31   A 1.15 1.15 0.0 0 1 501.86 743.16   L 514.64 743.16   A 1.09 1.08 -90.0 0 0 515.72 742.07   L 515.72 728.98   A 1.05 1.05 0.0 0 1 516.77 727.93   L 530.13 727.93   A 0.80 0.80 0.0 0 0 530.93 727.13   L 530.93 713.70   A 1.05 1.04 -0.0 0 1 531.98 712.66   L 545.00 712.66   A 0.99 0.99 0.0 0 0 545.99 711.67   L 545.99 699.13   A 1.20 1.20 0.0 0 1 547.19 697.93   L 561.03 697.93   A 0.69 0.69 0.0 0 0 561.72 697.24   L 561.72 683.54   A 0.90 0.90 0.0 0 1 562.62 682.64   L 575.29 682.64   A 1.35 1.35 0.0 0 0 576.64 681.29   L 576.64 669.03   A 1.34 1.33 90.0 0 1 577.97 667.69   L 590.75 667.69   A 0.81 0.80 0.0 0 0 591.56 666.89   L 591.56 637.81   A 1.05 1.05 0.0 0 1 592.61 636.76   L 605.53 636.76   A 1.33 1.33 0.0 0 0 606.86 635.43   L 606.86 607.59   A 1.02 1.02 0.0 0 1 607.88 606.57   L 620.66 606.57   A 1.31 1.31 0.0 0 0 621.97 605.26   L 621.97 562.00   A 0.64 0.63 90.0 0 1 622.60 561.36   L 635.83 561.36   A 1.07 1.06 9.6 0 0 636.84 560.65   Q 637.14 559.84 637.13 557.75   Q 636.86 470.53 637.05 395.23   A 0.80 0.79 -90.0 0 0 636.26 394.43   L 622.97 394.43   A 1.17 1.16 1.8 0 1 621.80 393.19   L 622.63 379.19   L 680.55 379.18   Z"/>
<path xmlns="http://www.w3.org/2000/svg" fill="#f1e287" d="   M 667.48 544.48   C 664.88 540.78 665.25 536.34 666.00 532.18   A 1.81 1.78 -17.9 0 1 666.48 531.26   L 668.17 529.57   A 1.08 1.08 0.0 0 1 668.82 529.26   L 679.26 528.20   A 1.17 1.16 87.3 0 0 680.31 527.04   L 680.55 379.18   Q 681.66 378.89 682.32 379.16   A 0.82 0.82 0.0 0 1 682.83 379.92   L 682.83 530.02   A 0.96 0.96 0.0 0 1 681.87 530.98   L 668.13 530.98   A 0.58 0.57 -0.0 0 0 667.55 531.55   L 667.48 544.48   Z"/>
<path xmlns="http://www.w3.org/2000/svg" fill="#000000" d="   M 577.18 394.52   L 606.66 394.52   A 0.35 0.35 0.0 0 1 607.01 394.87   L 607.01 409.69   A 0.35 0.35 0.0 0 1 606.66 410.04   L 577.23 410.04   A 0.35 0.35 0.0 0 0 576.88 410.39   L 576.88 424.49   A 0.35 0.35 0.0 0 1 576.53 424.84   L 562.05 424.84   A 0.35 0.35 0.0 0 1 561.70 424.49   L 561.70 410.29   A 0.35 0.35 0.0 0 1 562.05 409.94   L 576.48 409.94   A 0.35 0.35 0.0 0 0 576.83 409.59   L 576.83 394.87   A 0.35 0.35 0.0 0 1 577.18 394.52   Z"/>
<path xmlns="http://www.w3.org/2000/svg" fill="#f9f0b4" d="   M 500.58 410.10   Q 499.52 417.94 500.75 424.87   L 500.80 454.94   L 500.05 459.48   A 3.31 3.03 -42.4 0 0 500.00 460.04   L 500.25 529.66   A 0.83 0.83 0.0 0 1 499.44 530.49   Q 488.54 530.68 488.50 530.68   C 485.44 530.71 484.99 534.25 484.98 536.25   C 484.90 546.89 484.37 560.15 484.73 571.59   Q 485.04 581.29 484.72 590.18   A 1.05 1.05 0.0 0 1 483.62 591.19   C 479.68 591.03 474.12 591.12 470.95 592.71   A 2.19 2.18 -13.5 0 0 469.75 594.66   L 469.75 620.06   A 1.35 1.35 0.0 0 1 468.40 621.41   C 464.55 621.42 459.95 621.46 456.02 622.59   A 0.96 0.95 -0.6 0 0 455.36 623.26   Q 454.85 625.10 454.85 626.34   Q 454.87 638.80 454.60 650.37   A 1.29 1.29 0.0 0 1 453.32 651.63   L 442.95 651.72   A 2.71 2.71 0.0 0 0 440.63 653.06   Q 439.75 654.54 439.67 657.42   Q 439.32 669.27 439.67 681.18   A 1.38 1.38 0.0 0 1 438.29 682.60   L 426.73 682.60   A 1.31 1.30 6.7 0 0 425.46 683.60   Q 424.05 689.30 424.59 696.28   A 1.29 1.28 87.7 0 1 423.31 697.67   L 410.94 697.67   A 1.17 1.16 0.0 0 0 409.77 698.83   L 409.77 727.23   A 0.78 0.78 0.0 0 1 408.99 728.01   L 395.20 728.01   A 1.27 1.27 0.0 0 0 393.93 729.28   L 393.93 742.06   A 0.66 0.65 -89.2 0 1 393.26 742.72   C 390.30 742.62 383.76 742.48 380.79 743.95   A 2.95 2.94 77.5 0 0 379.16 746.52   L 378.95 756.72   A 1.51 1.51 0.0 0 1 377.50 758.20   L 363.96 758.79   L 363.94 743.47   A 0.42 0.42 0.0 0 1 364.36 743.05   L 378.28 743.05   A 0.76 0.76 0.0 0 0 379.04 742.29   L 379.04 713.24   A 0.39 0.39 0.0 0 1 379.43 712.85   L 393.57 712.85   A 0.59 0.58 -90.0 0 0 394.15 712.26   L 394.15 698.73   A 0.74 0.74 0.0 0 1 394.89 697.99   L 409.50 697.99   A 0.46 0.46 0.0 0 0 409.96 697.53   L 409.96 683.59   A 0.87 0.87 0.0 0 1 410.83 682.72   L 424.20 682.72   A 0.64 0.64 0.0 0 0 424.84 682.08   L 424.84 652.80   A 0.56 0.56 0.0 0 1 425.40 652.24   L 439.33 652.24   A 0.42 0.42 0.0 0 0 439.75 651.82   L 439.86 621.86   L 439.90 621.38   Q 439.79 621.95 440.51 621.96   Q 448.02 622.12 454.22 621.99   A 0.67 0.67 0.0 0 0 454.88 621.32   L 454.88 592.24   A 0.61 0.60 90.0 0 1 455.48 591.63   L 469.28 591.63   A 0.56 0.55 90.0 0 0 469.83 591.07   L 469.83 531.62   A 0.54 0.54 0.0 0 1 470.37 531.08   L 484.67 531.08   A 0.28 0.27 -90.0 0 0 484.94 530.80   L 484.94 410.14   A 0.24 0.24 0.0 0 1 485.19 409.90   L 500.58 410.10   Z"/>
<path xmlns="http://www.w3.org/2000/svg" fill="#f1e287" d="   M 516.09 424.67   Q 516.02 424.77 515.94 424.86   L 500.75 424.87   Q 499.52 417.94 500.58 410.10   L 515.16 410.12   A 0.75 0.75 0.0 0 1 515.91 410.86   L 516.09 424.67   Z"/>
<path xmlns="http://www.w3.org/2000/svg" fill="#000000" d="   M 515.94 424.86   L 515.99 454.94   L 500.80 454.94   L 500.75 424.87   L 515.94 424.86   Z"/>
<path xmlns="http://www.w3.org/2000/svg" fill="#ffffff" d="   M 516.09 424.67   L 530.17 425.03   L 530.40 425.56   A 2.24 2.20 33.2 0 1 530.60 426.48   L 530.75 453.43   A 0.96 0.96 0.0 0 1 529.82 454.40   L 515.99 454.94   L 515.94 424.86   Q 516.02 424.77 516.09 424.67   Z"/>
<path xmlns="http://www.w3.org/2000/svg" fill="#000000" d="   M 591.51 425.04   L 591.55 454.77   L 577.50 454.78   A 0.54 0.54 0.0 0 1 576.96 454.24   L 576.96 425.21   A 0.24 0.23 -90.0 0 1 577.19 424.97   L 591.51 425.04   Z"/>
<path xmlns="http://www.w3.org/2000/svg" fill="#ffffff" d="   M 591.55 454.77   L 591.51 425.04   L 606.34 425.15   A 0.49 0.49 0.0 0 1 606.82 425.64   L 606.82 454.01   A 0.66 0.65 90.0 0 1 606.17 454.67   L 591.55 454.77   Z"/>
<rect xmlns="http://www.w3.org/2000/svg" fill="#000000" x="-7.38" y="-7.38" transform="translate(584.24,493.13) rotate(0.1)" width="14.76" height="14.76" rx="0.55"/>
<rect xmlns="http://www.w3.org/2000/svg" fill="#000000" x="515.87" y="500.79" width="60.96" height="14.94" rx="0.51"/>
<path xmlns="http://www.w3.org/2000/svg" fill="#f6d001" d="   M 697.80 604.33   L 697.77 592.30   A 0.47 0.47 0.0 0 0 697.30 591.83   L 683.95 591.83   A 0.95 0.94 -90.0 0 1 683.01 590.88   L 683.01 577.26   A 0.64 0.64 0.0 0 0 682.37 576.62   L 668.44 576.62   A 0.72 0.72 0.0 0 1 667.72 575.91   L 667.58 561.33   L 667.10 549.86   A 1.00 1.00 0.0 0 1 668.05 548.82   L 678.94 548.26   A 1.47 1.46 86.9 0 1 680.48 549.65   L 681.01 560.01   A 1.57 1.56 7.1 0 0 682.13 561.44   L 694.69 565.12   A 0.89 0.88 4.2 0 1 695.32 565.84   L 697.03 577.00   A 0.77 0.77 0.0 0 0 697.59 577.62   Q 703.62 579.29 709.45 578.85   A 1.47 1.47 0.0 0 1 711.03 580.23   Q 711.68 592.24 710.89 603.84   A 1.33 1.33 0.0 0 1 709.47 605.08   L 697.80 604.33   Z"/>
<path xmlns="http://www.w3.org/2000/svg" fill="#906e30" d="   M 697.96 561.04   L 698.57 561.29   Q 698.11 561.39 698.03 561.77   L 697.52 561.39   L 697.96 561.04   Z"/>
<path xmlns="http://www.w3.org/2000/svg" fill="#000000" d="   M 424.54 561.33   Q 424.91 561.51 424.91 561.76   Q 424.92 576.00 424.92 576.16   A 0.59 0.58 88.6 0 1 424.34 576.78   L 410.48 576.84   A 0.58 0.57 -89.5 0 0 409.91 577.41   L 409.91 604.76   Q 410.04 605.60 409.90 606.49   A 0.59 0.58 4.6 0 1 409.32 606.98   L 395.04 606.98   A 1.15 1.15 0.0 0 0 393.89 608.13   L 394.00 682.53   A 0.19 0.15 -38.0 0 1 393.98 682.61   Q 393.93 682.72 393.87 682.84   L 379.67 682.84   A 0.54 0.53 -90.0 0 0 379.14 683.38   L 379.14 697.35   A 0.54 0.54 0.0 0 0 379.68 697.89   L 393.28 697.89   A 0.58 0.57 0.0 0 0 393.86 697.32   L 393.87 682.84   L 409.11 682.77   A 0.92 0.91 90.0 0 0 410.02 681.85   L 410.02 607.43   A 0.38 0.38 0.0 0 1 410.40 607.05   L 425.02 607.02   L 425.11 621.32   A 0.51 0.51 0.0 0 0 425.62 621.83   L 439.86 621.86   L 439.75 651.82   A 0.42 0.42 0.0 0 1 439.33 652.24   L 425.40 652.24   A 0.56 0.56 0.0 0 0 424.84 652.80   L 424.84 682.08   A 0.64 0.64 0.0 0 1 424.20 682.72   L 410.83 682.72   A 0.87 0.87 0.0 0 0 409.96 683.59   L 409.96 697.53   A 0.46 0.46 0.0 0 1 409.50 697.99   L 394.89 697.99   A 0.74 0.74 0.0 0 0 394.15 698.73   L 394.15 712.26   A 0.59 0.58 90.0 0 1 393.57 712.85   L 379.43 712.85   A 0.39 0.39 0.0 0 0 379.04 713.24   L 379.04 742.29   A 0.76 0.76 0.0 0 1 378.28 743.05   L 364.36 743.05   A 0.42 0.42 0.0 0 0 363.94 743.47   L 363.96 758.79   L 349.75 758.84   A 0.52 0.52 0.0 0 0 349.23 759.35   L 349.15 773.95   L 335.83 773.79   A 1.71 1.71 0.0 0 0 334.10 775.50   L 334.10 801.96   A 2.32 2.31 90.0 0 0 336.41 804.28   L 347.98 804.28   A 1.08 1.08 0.0 0 1 349.06 805.40   Q 348.89 810.02 349.13 816.18   Q 349.25 819.25 351.50 819.26   Q 365.52 819.31 379.54 819.22   L 454.66 819.16   A 0.56 0.56 0.0 0 0 455.22 818.60   L 455.26 804.06   L 515.86 804.05   L 515.89 818.63   A 0.60 0.59 -0.5 0 1 515.29 819.23   L 485.84 819.23   A 0.57 0.56 -90.0 0 0 485.28 819.80   L 485.28 909.45   A 0.64 0.64 0.0 0 1 484.64 910.09   L 410.62 910.09   A 0.71 0.71 0.0 0 1 409.91 909.38   L 409.91 880.48   A 0.45 0.44 -0.0 0 1 410.36 880.04   L 424.24 880.04   A 0.58 0.58 0.0 0 0 424.82 879.46   L 424.82 865.28   A 0.54 0.54 0.0 0 1 425.36 864.74   L 439.40 864.74   A 0.46 0.46 0.0 0 0 439.86 864.28   L 439.86 834.92   A 0.47 0.47 0.0 0 0 439.39 834.45   L 349.32 834.45   A 0.30 0.29 -90.0 0 1 349.03 834.15   L 349.03 819.84   A 0.61 0.61 0.0 0 0 348.42 819.23   L 334.69 819.23   A 0.57 0.56 -90.0 0 1 334.13 818.66   L 334.13 804.68   A 0.56 0.56 0.0 0 0 333.57 804.12   L 319.33 804.12   A 0.42 0.42 0.0 0 1 318.91 803.70   L 318.91 774.39   A 0.56 0.56 0.0 0 1 319.47 773.83   L 333.60 773.83   A 0.46 0.45 -90.0 0 0 334.05 773.37   L 334.05 759.16   A 0.53 0.52 90.0 0 1 334.57 758.63   L 348.36 758.63   A 0.58 0.58 0.0 0 0 348.94 758.05   L 348.94 743.77   A 0.55 0.55 0.0 0 0 348.39 743.22   L 334.55 743.22   A 0.55 0.54 0.0 0 1 334.00 742.68   L 334.00 728.71   A 0.81 0.81 0.0 0 0 333.19 727.90   L 319.33 727.90   A 0.42 0.42 0.0 0 1 318.91 727.48   L 318.91 652.72   A 0.66 0.65 0.0 0 1 319.57 652.07   L 333.06 652.07   A 0.97 0.97 0.0 0 0 334.03 651.10   L 334.03 637.73   A 0.63 0.63 0.0 0 1 334.66 637.10   L 363.42 637.10   A 0.61 0.60 -0.0 0 1 364.03 637.70   L 364.03 651.59   A 0.53 0.52 90.0 0 0 364.55 652.12   L 378.50 652.12   A 0.55 0.54 90.0 0 0 379.04 651.57   L 379.04 607.50   A 0.61 0.60 90.0 0 1 379.64 606.89   L 393.36 606.89   A 0.64 0.64 0.0 0 0 394.00 606.25   L 394.00 577.30   A 0.70 0.70 0.0 0 1 394.70 576.60   L 409.59 576.60   A 0.34 0.33 -90.0 0 0 409.92 576.26   L 409.92 561.71   A 0.42 0.42 0.0 0 1 410.34 561.29   L 424.54 561.33   Z   M 334.02 667.66   L 334.02 682.75   L 334.13 713.28   L 334.21 727.30   A 0.66 0.65 0.0 0 0 334.87 727.95   L 363.34 727.95   A 0.69 0.68 -0.4 0 0 364.03 727.26   L 363.97 713.02   L 363.88 652.62   A 0.44 0.43 -90.0 0 0 363.45 652.18   L 335.07 652.18   A 1.02 1.02 0.0 0 0 334.05 653.20   L 334.02 667.66   Z   M 454.83 862.80   Q 454.94 863.44 454.86 864.04   Q 454.80 864.58 454.40 864.76   Q 454.00 864.93 453.48 864.84   L 440.35 864.94   A 0.48 0.48 0.0 0 0 439.88 865.42   L 439.88 879.41   A 0.54 0.54 0.0 0 1 439.34 879.95   L 425.64 879.95   A 0.86 0.86 0.0 0 0 424.78 880.81   L 424.78 894.39   A 0.70 0.70 0.0 0 0 425.48 895.09   L 469.34 895.09   A 0.81 0.80 -0.0 0 0 470.15 894.29   L 470.15 835.06   A 0.59 0.59 0.0 0 0 469.56 834.47   L 455.31 834.47   A 0.36 0.36 0.0 0 0 454.95 834.83   L 454.83 862.80   Z"/>
<path xmlns="http://www.w3.org/2000/svg" fill="#e5c05b" d="   M 425.09 561.35   L 439.55 561.33   C 436.30 563.61 430.81 563.41 427.54 563.55   A 1.05 1.05 0.0 0 0 426.53 564.60   L 426.53 576.04   A 0.86 0.85 -10.4 0 1 425.97 576.84   Q 419.55 579.25 413.79 579.04   A 2.32 2.32 0.0 0 0 411.39 581.50   Q 411.78 588.28 412.07 595.04   Q 412.29 600.24 409.91 604.76   L 409.91 577.41   A 0.58 0.57 -89.5 0 1 410.48 576.84   L 424.34 576.78   A 0.59 0.58 88.6 0 0 424.92 576.16   Q 424.92 576.00 424.91 561.76   Q 424.91 561.51 424.54 561.33   Q 425.00 561.24 425.09 561.35   Z"/>
<path xmlns="http://www.w3.org/2000/svg" fill="#f6d001" d="   M 425.02 607.02   L 410.40 607.05   A 0.38 0.38 0.0 0 0 410.02 607.43   L 410.02 681.85   A 0.92 0.91 -90.0 0 1 409.11 682.77   L 393.87 682.84   Q 393.93 682.72 393.98 682.61   A 0.19 0.15 -38.0 0 0 394.00 682.53   L 393.89 608.13   A 1.15 1.15 0.0 0 1 395.04 606.98   L 409.32 606.98   A 0.59 0.58 4.6 0 0 409.90 606.49   Q 410.04 605.60 409.91 604.76   Q 412.29 600.24 412.07 595.04   Q 411.78 588.28 411.39 581.50   A 2.32 2.32 0.0 0 1 413.79 579.04   Q 419.55 579.25 425.97 576.84   A 0.86 0.85 -10.4 0 0 426.53 576.04   L 426.53 564.60   A 1.05 1.05 0.0 0 1 427.54 563.55   C 430.81 563.41 436.30 563.61 439.55 561.33   L 454.25 561.34   A 0.70 0.70 0.0 0 1 454.95 562.04   L 454.95 576.11   A 0.51 0.50 -0.0 0 1 454.44 576.61   L 440.82 576.61   A 0.88 0.87 -90.0 0 0 439.95 577.49   L 439.95 591.09   A 0.56 0.56 0.0 0 1 439.39 591.65   L 425.31 591.65   A 0.34 0.34 0.0 0 0 424.97 592.00   L 425.02 607.02   Z"/>
<path xmlns="http://www.w3.org/2000/svg" fill="#000000" d="   M 667.58 561.33   L 667.72 575.91   A 0.72 0.72 0.0 0 0 668.44 576.62   L 682.37 576.62   A 0.64 0.64 0.0 0 1 683.01 577.26   L 683.01 590.88   A 0.95 0.94 90.0 0 0 683.95 591.83   L 697.30 591.83   A 0.47 0.47 0.0 0 1 697.77 592.30   L 697.80 604.33   Q 697.70 605.53 697.90 606.77   Q 697.98 607.28 697.52 607.06   L 683.45 607.00   A 0.36 0.36 0.0 0 0 683.09 607.36   L 683.09 636.65   A 0.44 0.44 0.0 0 1 682.65 637.09   L 668.28 637.09   A 0.61 0.61 0.0 0 0 667.67 637.70   L 667.67 651.65   A 0.43 0.43 0.0 0 0 668.10 652.08   L 682.76 652.08   A 0.35 0.35 0.0 0 1 683.11 652.43   L 683.11 667.08   A 0.63 0.63 0.0 0 0 683.74 667.71   L 697.39 667.71   A 0.48 0.48 0.0 0 0 697.87 667.23   L 697.93 607.29   L 711.82 606.86   A 1.01 1.01 0.0 0 1 712.86 607.87   L 712.85 621.22   L 712.87 667.28   A 0.47 0.47 0.0 0 1 712.40 667.75   L 699.08 667.75   A 1.23 1.23 0.0 0 0 697.85 668.97   L 697.81 683.00   L 683.67 682.98   A 0.62 0.62 0.0 0 0 683.05 683.60   L 683.05 697.25   A 0.63 0.62 -0.0 0 0 683.68 697.87   L 697.75 697.88   L 728.02 697.95   L 743.34 697.93   A 0.43 0.42 -0.0 0 0 743.77 697.51   L 743.77 683.23   A 0.51 0.51 0.0 0 0 743.25 682.72   L 728.14 682.78   L 728.05 610.13   L 727.95 606.89   L 743.27 606.88   A 0.49 0.48 90.0 0 1 743.75 607.37   L 743.75 651.58   A 0.55 0.55 0.0 0 0 744.30 652.13   L 758.18 652.13   A 0.61 0.61 0.0 0 0 758.79 651.52   L 758.79 637.64   A 0.56 0.55 90.0 0 1 759.34 637.08   L 788.41 637.08   A 0.41 0.41 0.0 0 1 788.82 637.49   L 788.82 651.34   A 0.75 0.74 -0.0 0 0 789.57 652.08   L 803.53 652.08   A 0.37 0.37 0.0 0 1 803.90 652.45   L 803.90 727.34   A 0.59 0.58 -0.0 0 1 803.31 727.92   L 788.87 727.89   L 788.85 712.79   L 788.89 683.15   L 788.84 667.67   L 789.04 653.35   A 1.12 1.12 0.0 0 0 787.92 652.21   L 759.40 652.21   A 0.62 0.62 0.0 0 0 758.78 652.83   L 758.80 712.80   L 758.85 727.36   A 0.51 0.51 0.0 0 0 759.36 727.87   L 788.64 727.95   L 788.57 742.68   A 0.53 0.53 0.0 0 1 788.04 743.21   L 759.39 743.21   A 0.59 0.59 0.0 0 1 758.80 742.62   L 758.80 728.66   A 0.68 0.67 0.0 0 0 758.12 727.99   L 744.43 727.99   A 0.67 0.67 0.0 0 1 743.76 727.32   L 743.76 713.62   A 0.56 0.55 90.0 0 0 743.21 713.06   L 683.67 713.06   A 0.56 0.55 -90.0 0 0 683.12 713.62   L 683.12 727.23   A 0.68 0.68 0.0 0 1 682.44 727.91   L 668.03 727.91   A 0.38 0.38 0.0 0 0 667.65 728.29   L 667.65 742.83   A 0.36 0.35 -0.0 0 1 667.29 743.18   L 637.69 743.18   A 0.51 0.51 0.0 0 1 637.18 742.67   L 637.18 728.76   A 0.83 0.82 -0.0 0 0 636.35 727.94   L 622.71 727.94   A 0.63 0.63 0.0 0 0 622.08 728.57   L 622.08 742.63   A 0.56 0.56 0.0 0 1 621.52 743.19   L 607.21 743.18   Q 606.81 742.91 606.81 742.25   Q 606.82 734.20 607.07 713.23   A 0.39 0.39 0.0 0 1 607.46 712.84   L 621.52 712.84   A 0.62 0.62 0.0 0 0 622.14 712.22   L 622.14 652.71   A 0.60 0.60 0.0 0 1 622.74 652.11   L 636.10 652.11   A 1.05 1.04 -90.0 0 0 637.14 651.06   L 637.14 637.62   A 0.58 0.58 0.0 0 1 637.72 637.04   L 666.53 637.04   A 1.01 1.00 90.0 0 0 667.53 636.03   L 667.53 577.16   A 0.47 0.47 0.0 0 0 667.06 576.69   L 653.04 576.69   A 0.66 0.66 0.0 0 1 652.38 576.03   L 652.38 562.02   A 0.78 0.78 0.0 0 1 653.17 561.24   L 667.58 561.33   Z   M 637.23 667.20   L 637.16 682.75   L 637.18 712.99   L 637.40 726.98   A 0.99 0.99 0.0 0 0 638.39 727.95   L 666.71 727.95   A 0.91 0.91 0.0 0 0 667.62 727.04   L 667.60 705.96   L 667.58 652.77   A 0.59 0.59 0.0 0 0 666.99 652.18   L 637.93 652.18   A 0.66 0.66 0.0 0 0 637.27 652.84   L 637.23 667.20   Z"/>
<path xmlns="http://www.w3.org/2000/svg" fill="#000000" d="   M 712.84 576.44   Q 712.65 576.82 712.42 576.82   Q 705.46 576.73 698.54 576.81   A 0.51 0.51 0.0 0 1 698.03 576.30   L 698.03 561.77   Q 698.11 561.39 698.57 561.29   L 712.30 561.31   A 0.55 0.55 0.0 0 1 712.85 561.86   L 712.84 576.44   Z"/>
<path xmlns="http://www.w3.org/2000/svg" fill="#000000" d="   M 728.03 606.87   L 713.28 606.85   A 0.22 0.21 0.0 0 1 713.06 606.64   L 713.08 576.70   L 727.62 576.70   A 0.43 0.43 0.0 0 1 728.05 577.13   L 728.03 606.87   Z"/>
<path xmlns="http://www.w3.org/2000/svg" fill="#ffffff" d="   M 439.90 621.38   L 439.86 621.86   L 425.62 621.83   A 0.51 0.51 0.0 0 1 425.11 621.32   L 425.02 607.02   L 439.33 607.05   A 0.52 0.52 0.0 0 1 439.84 607.57   L 439.90 621.38   Z"/>
<path xmlns="http://www.w3.org/2000/svg" fill="#ffffff" d="   M 697.52 607.06   L 697.93 607.29   L 697.87 667.23   A 0.48 0.48 0.0 0 1 697.39 667.71   L 683.74 667.71   A 0.63 0.63 0.0 0 1 683.11 667.08   L 683.11 652.43   A 0.35 0.35 0.0 0 0 682.76 652.08   L 668.10 652.08   A 0.43 0.43 0.0 0 1 667.67 651.65   L 667.67 637.70   A 0.61 0.61 0.0 0 1 668.28 637.09   L 682.65 637.09   A 0.44 0.44 0.0 0 0 683.09 636.65   L 683.09 607.36   A 0.36 0.36 0.0 0 1 683.45 607.00   L 697.52 607.06   Z"/>
<path xmlns="http://www.w3.org/2000/svg" fill="#f6d001" d="   M 728.05 610.13   L 728.14 682.78   L 728.05 684.00   Q 726.38 689.14 726.30 694.36   A 0.80 0.80 0.0 0 1 725.66 695.13   Q 723.26 695.63 720.61 695.75   Q 709.28 696.24 697.95 695.10   L 697.81 683.00   L 697.85 668.97   A 1.23 1.23 0.0 0 1 699.08 667.75   L 712.40 667.75   A 0.47 0.47 0.0 0 0 712.87 667.28   L 712.85 621.22   L 714.81 609.40   A 0.96 0.94 -86.5 0 1 715.69 608.61   Q 722.53 608.24 728.05 610.13   Z"/>
<path xmlns="http://www.w3.org/2000/svg" fill="#7e9096" d="   M 363.97 713.02   L 334.13 713.28   L 334.02 682.75   L 348.24 682.56   A 0.73 0.73 0.0 0 0 348.96 681.83   L 348.96 668.36   A 0.63 0.63 0.0 0 0 348.33 667.73   L 334.02 667.66   L 334.05 653.20   A 1.02 1.02 0.0 0 1 335.07 652.18   L 363.45 652.18   A 0.44 0.43 90.0 0 1 363.88 652.62   L 363.97 713.02   Z"/>
<path xmlns="http://www.w3.org/2000/svg" fill="#7e9096" d="   M 667.60 705.96   L 667.51 711.70   A 1.33 1.33 0.0 0 1 666.18 713.01   L 637.18 712.99   L 637.16 682.75   L 651.13 682.50   A 1.19 1.19 0.0 0 0 652.30 681.31   L 652.30 668.74   A 1.17 1.17 0.0 0 0 651.16 667.57   L 637.23 667.20   L 637.27 652.84   A 0.66 0.66 0.0 0 1 637.93 652.18   L 666.99 652.18   A 0.59 0.59 0.0 0 1 667.58 652.77   L 667.60 705.96   Z"/>
<path xmlns="http://www.w3.org/2000/svg" fill="#7e9096" d="   M 788.84 667.67   L 775.30 667.60   A 1.28 1.28 0.0 0 0 774.01 668.88   L 774.01 681.18   A 1.23 1.23 0.0 0 0 775.18 682.41   L 788.89 683.15   L 788.85 712.79   Q 773.97 713.59 758.80 712.80   L 758.78 652.83   A 0.62 0.62 0.0 0 1 759.40 652.21   L 787.92 652.21   A 1.12 1.12 0.0 0 1 789.04 653.35   L 788.84 667.67   Z"/>
<path xmlns="http://www.w3.org/2000/svg" fill="#b1f1ef" d="   M 637.16 682.75   L 637.23 667.20   L 651.16 667.57   A 1.17 1.17 0.0 0 1 652.30 668.74   L 652.30 681.31   A 1.19 1.19 0.0 0 1 651.13 682.50   L 637.16 682.75   Z"/>
<path xmlns="http://www.w3.org/2000/svg" fill="#b1f1ef" d="   M 334.02 682.75   L 334.02 667.66   L 348.33 667.73   A 0.63 0.63 0.0 0 1 348.96 668.36   L 348.96 681.83   A 0.73 0.73 0.0 0 1 348.24 682.56   L 334.02 682.75   Z"/>
<path xmlns="http://www.w3.org/2000/svg" fill="#b1f1ef" d="   M 788.84 667.67   L 788.89 683.15   L 775.18 682.41   A 1.23 1.23 0.0 0 1 774.01 681.18   L 774.01 668.88   A 1.28 1.28 0.0 0 1 775.30 667.60   L 788.84 667.67   Z"/>
<path xmlns="http://www.w3.org/2000/svg" fill="#5b6a70" d="   M 728.02 697.95   L 728.05 684.00   L 728.14 682.78   L 743.25 682.72   A 0.51 0.51 0.0 0 1 743.77 683.23   L 743.77 697.51   A 0.43 0.42 -0.0 0 1 743.34 697.93   L 728.02 697.95   Z"/>
<path xmlns="http://www.w3.org/2000/svg" fill="#5b6a70" d="   M 393.87 682.84   L 393.86 697.32   A 0.58 0.57 -0.0 0 1 393.28 697.89   L 379.68 697.89   A 0.54 0.54 0.0 0 1 379.14 697.35   L 379.14 683.38   A 0.54 0.53 -90.0 0 1 379.67 682.84   L 393.87 682.84   Z"/>
<path xmlns="http://www.w3.org/2000/svg" fill="#5b6a70" d="   M 697.81 683.00   L 697.95 695.10   L 697.75 697.88   L 683.68 697.87   A 0.63 0.62 -0.0 0 1 683.05 697.25   L 683.05 683.60   A 0.62 0.62 0.0 0 1 683.67 682.98   L 697.81 683.00   Z"/>
<path xmlns="http://www.w3.org/2000/svg" fill="#e5c05b" d="   M 728.05 684.00   L 728.02 697.95   L 697.75 697.88   L 697.95 695.10   Q 709.28 696.24 720.61 695.75   Q 723.26 695.63 725.66 695.13   A 0.80 0.80 0.0 0 0 726.30 694.36   Q 726.38 689.14 728.05 684.00   Z"/>
<path xmlns="http://www.w3.org/2000/svg" fill="#5b6a70" d="   M 637.18 712.99   L 666.18 713.01   A 1.33 1.33 0.0 0 0 667.51 711.70   L 667.60 705.96   L 667.62 727.04   A 0.91 0.91 0.0 0 1 666.71 727.95   L 638.39 727.95   A 0.99 0.99 0.0 0 1 637.40 726.98   L 637.18 712.99   Z"/>
<path xmlns="http://www.w3.org/2000/svg" fill="#5b6a70" d="   M 788.87 727.89   L 788.64 727.95   L 759.36 727.87   A 0.51 0.51 0.0 0 1 758.85 727.36   L 758.80 712.80   Q 773.97 713.59 788.85 712.79   L 788.87 727.89   Z"/>
<path xmlns="http://www.w3.org/2000/svg" fill="#5b6a70" d="   M 363.97 713.02   L 364.03 727.26   A 0.69 0.68 -0.4 0 1 363.34 727.95   L 334.87 727.95   A 0.66 0.65 -0.0 0 1 334.21 727.30   L 334.13 713.28   L 363.97 713.02   Z"/>
<path xmlns="http://www.w3.org/2000/svg" fill="#000000" d="   M 607.01 743.46   L 607.10 758.00   A 0.68 0.67 -90.0 0 1 606.43 758.68   L 592.45 758.68   A 0.65 0.64 -0.0 0 0 591.80 759.32   L 591.80 773.06   A 0.78 0.77 90.0 0 1 591.03 773.84   L 577.68 773.84   A 0.63 0.63 0.0 0 0 577.05 774.47   L 577.05 909.38   A 0.70 0.70 0.0 0 1 576.35 910.08   L 501.24 910.08   A 0.35 0.35 0.0 0 1 500.89 909.73   L 500.89 880.44   A 0.46 0.46 0.0 0 1 501.35 879.98   L 515.44 879.98   A 0.45 0.44 -90.0 0 0 515.88 879.53   L 515.88 865.43   A 0.62 0.61 0.0 0 1 516.50 864.82   L 530.41 864.82   A 0.52 0.51 90.0 0 0 530.92 864.30   L 530.92 804.60   A 0.50 0.50 0.0 0 0 530.42 804.10   L 516.07 804.04   L 516.06 789.40   A 0.54 0.53 90.0 0 1 516.59 788.86   L 545.71 788.86   A 0.57 0.57 0.0 0 0 546.28 788.29   L 546.28 774.43   A 0.54 0.54 0.0 0 1 546.82 773.89   L 576.21 773.89   A 0.58 0.58 0.0 0 0 576.79 773.31   L 576.79 759.28   A 0.57 0.57 0.0 0 1 577.36 758.71   L 591.03 758.71   A 0.74 0.74 0.0 0 0 591.77 757.97   L 591.77 743.87   A 0.55 0.54 90.0 0 1 592.31 743.32   L 606.60 743.18   A 0.39 0.33 58.3 0 1 606.81 743.25   Q 606.96 743.37 607.01 743.46   Z   M 546.11 792.91   L 546.07 864.08   A 0.84 0.83 -0.7 0 1 545.25 864.91   L 541.56 864.96   L 531.89 864.91   A 1.03 1.03 0.0 0 0 530.85 865.94   L 530.85 879.25   A 0.65 0.65 0.0 0 1 530.20 879.90   L 516.81 879.90   A 0.93 0.93 0.0 0 0 515.88 880.83   L 515.88 894.48   A 0.63 0.63 0.0 0 0 516.51 895.11   L 561.75 895.11   A 0.30 0.30 0.0 0 0 562.05 894.81   L 562.02 856.52   L 562.00 801.09   L 562.03 789.33   A 0.48 0.48 0.0 0 0 561.55 788.85   L 546.70 788.85   A 0.51 0.51 0.0 0 0 546.19 789.35   L 546.11 792.91   Z"/>
<path xmlns="http://www.w3.org/2000/svg" fill="#6e461b" d="   M 349.15 773.95   L 363.32 773.86   A 0.58 0.58 0.0 0 1 363.90 774.44   L 363.90 788.03   A 0.89 0.89 0.0 0 0 364.79 788.92   L 379.14 788.91   L 379.06 818.60   Q 379.34 818.53 379.54 819.22   Q 365.52 819.31 351.50 819.26   Q 349.25 819.25 349.13 816.18   Q 348.89 810.02 349.06 805.40   A 1.08 1.08 0.0 0 0 347.98 804.28   L 336.41 804.28   A 2.32 2.31 -90.0 0 1 334.10 801.96   L 334.10 775.50   A 1.71 1.71 0.0 0 1 335.83 773.79   L 349.15 773.95   Z"/>
<path xmlns="http://www.w3.org/2000/svg" fill="#e5c05b" d="   M 562.00 801.09   L 558.87 791.93   A 0.81 0.79 -5.4 0 0 558.23 791.41   Q 551.85 790.56 546.11 792.91   L 546.19 789.35   A 0.51 0.51 0.0 0 1 546.70 788.85   L 561.55 788.85   A 0.48 0.48 0.0 0 1 562.03 789.33   L 562.00 801.09   Z"/>
<path xmlns="http://www.w3.org/2000/svg" fill="#f6d001" d="   M 562.00 801.09   L 562.02 856.52   Q 559.46 861.04 559.72 866.42   Q 560.34 879.55 559.95 891.71   A 0.97 0.96 89.4 0 1 559.04 892.65   Q 554.66 892.94 548.10 893.15   C 538.67 893.45 527.94 892.51 519.10 892.63   A 0.79 0.78 88.1 0 1 518.31 891.88   L 517.86 883.17   A 1.05 1.04 -6.2 0 1 518.74 882.09   L 532.04 880.06   A 1.06 1.06 0.0 0 0 532.93 879.10   L 533.89 867.91   A 0.86 0.85 -88.4 0 1 534.70 867.13   Q 538.33 866.96 541.56 864.96   L 545.25 864.91   A 0.84 0.83 -0.7 0 0 546.07 864.08   L 546.11 792.91   Q 551.85 790.56 558.23 791.41   A 0.81 0.79 -5.4 0 1 558.87 791.93   L 562.00 801.09   Z"/>
<path xmlns="http://www.w3.org/2000/svg" fill="#f1e287" d="   M 455.26 804.06   L 455.22 818.60   A 0.56 0.56 0.0 0 1 454.66 819.16   L 379.54 819.22   Q 379.34 818.53 379.06 818.60   Q 387.11 816.94 391.60 816.86   C 401.57 816.68 415.68 817.30 428.89 817.04   Q 436.75 816.88 446.25 817.45   Q 449.61 817.65 453.24 816.90   A 0.61 0.61 0.0 0 0 453.72 816.28   Q 453.49 810.52 455.26 804.06   Z"/>
<path xmlns="http://www.w3.org/2000/svg" fill="#e5c05b" d="   M 453.48 864.84   Q 448.30 866.89 442.99 867.13   A 0.78 0.78 0.0 0 0 442.25 867.84   L 441.24 879.62   A 1.02 1.02 0.0 0 1 440.38 880.54   L 427.50 882.52   A 0.82 0.82 0.0 0 0 426.81 883.33   L 426.81 890.45   A 2.18 2.18 0.0 0 0 428.99 892.63   L 467.10 892.63   A 0.79 0.78 89.6 0 0 467.88 891.83   Q 467.83 888.44 467.71 884.79   C 467.54 879.32 468.53 872.00 468.36 867.43   Q 467.88 854.58 467.43 839.03   A 1.70 1.69 -0.9 0 0 465.73 837.39   L 457.92 837.39   A 1.06 1.06 0.0 0 0 456.86 838.44   C 456.75 847.02 457.36 855.10 454.83 862.80   L 454.95 834.83   A 0.36 0.36 0.0 0 1 455.31 834.47   L 469.56 834.47   A 0.59 0.59 0.0 0 1 470.15 835.06   L 470.15 894.29   A 0.81 0.80 0.0 0 1 469.34 895.09   L 425.48 895.09   A 0.70 0.70 0.0 0 1 424.78 894.39   L 424.78 880.81   A 0.86 0.86 0.0 0 1 425.64 879.95   L 439.34 879.95   A 0.54 0.54 0.0 0 0 439.88 879.41   L 439.88 865.42   A 0.48 0.48 0.0 0 1 440.35 864.94   L 453.48 864.84   Z"/>
<path xmlns="http://www.w3.org/2000/svg" fill="#f6d001" d="   M 453.48 864.84   Q 454.00 864.93 454.40 864.76   Q 454.80 864.58 454.86 864.04   Q 454.94 863.44 454.83 862.80   C 457.36 855.10 456.75 847.02 456.86 838.44   A 1.06 1.06 0.0 0 1 457.92 837.39   L 465.73 837.39   A 1.70 1.69 -0.9 0 1 467.43 839.03   Q 467.88 854.58 468.36 867.43   C 468.53 872.00 467.54 879.32 467.71 884.79   Q 467.83 888.44 467.88 891.83   A 0.79 0.78 89.6 0 1 467.10 892.63   L 428.99 892.63   A 2.18 2.18 0.0 0 1 426.81 890.45   L 426.81 883.33   A 0.82 0.82 0.0 0 1 427.50 882.52   L 440.38 880.54   A 1.02 1.02 0.0 0 0 441.24 879.62   L 442.25 867.84   A 0.78 0.78 0.0 0 1 442.99 867.13   Q 448.30 866.89 453.48 864.84   Z"/>
<path xmlns="http://www.w3.org/2000/svg" fill="#e5c05b" d="   M 562.02 856.52   L 562.05 894.81   A 0.30 0.30 0.0 0 1 561.75 895.11   L 516.51 895.11   A 0.63 0.63 0.0 0 1 515.88 894.48   L 515.88 880.83   A 0.93 0.93 0.0 0 1 516.81 879.90   L 530.20 879.90   A 0.65 0.65 0.0 0 0 530.85 879.25   L 530.85 865.94   A 1.03 1.03 0.0 0 1 531.89 864.91   L 541.56 864.96   Q 538.33 866.96 534.70 867.13   A 0.86 0.85 -88.4 0 0 533.89 867.91   L 532.93 879.10   A 1.06 1.06 0.0 0 1 532.04 880.06   L 518.74 882.09   A 1.05 1.04 -6.2 0 0 517.86 883.17   L 518.31 891.88   A 0.79 0.78 88.1 0 0 519.10 892.63   C 527.94 892.51 538.67 893.45 548.10 893.15   Q 554.66 892.94 559.04 892.65   A 0.97 0.96 89.4 0 0 559.95 891.71   Q 560.34 879.55 559.72 866.42   Q 559.46 861.04 562.02 856.52   Z"/>
</g></g></g></g></svg>