<svg xmlns="http://www.w3.org/2000/svg" width="400" height="400" viewBox="10706.116256385303 16681.279843688048 4096 4096" stroke-linecap="round" stroke-linejoin="round"><defs/><g transform="matrix(1, 0, 0, 1, 10706.1163, 16681.2798)" opacity="1"><g transform="scale(2.8287292817679557, 2.8287292817679557)"><g>
<g xmlns="http://www.w3.org/2000/svg" stroke-width="2.00" fill="none" stroke-linecap="butt">
<path stroke="#bc93e6" d="   M 285.15 563.09   Q 284.97 565.23 284.49 567.01   Q 275.82 599.00 277.56 632.75   C 280.04 680.93 301.20 726.83 333.95 761.83   C 370.72 801.12 419.33 824.49 472.26 832.69   C 525.10 840.86 580.11 833.42 627.80 809.54   Q 648.90 798.98 663.34 789.32   Q 695.16 768.04 723.34 740.63   A 1.25 1.25 0.0 0 1 725.10 740.65   C 736.71 752.56 750.12 763.65 762.55 773.47   Q 785.27 791.40 811.17 805.07   Q 856.61 829.07 906.80 834.45   C 939.79 837.99 972.91 835.19 1004.89 826.65   Q 1048.16 815.09 1084.70 789.00   C 1131.79 755.37 1163.22 703.12 1169.49 645.26   Q 1176.94 576.51 1142.67 516.05   Q 1133.32 499.55 1119.34 483.65   Q 1078.10 436.74 1019.41 416.58   C 953.94 394.10 881.83 399.19 818.56 426.40   C 813.57 428.54 809.04 431.16 803.77 433.57   C 784.33 442.47 766.15 455.09 748.71 468.14   C 740.14 474.55 732.80 481.13 724.91 487.87   A 0.64 0.63 46.1 0 1 724.06 487.85   Q 698.90 463.93 668.67 445.62   Q 602.26 405.38 524.26 402.52   Q 468.83 400.49 417.88 420.40   Q 407.92 424.30 395.47 430.88   Q 382.80 437.57 374.12 443.38   Q 325.60 475.84 297.99 529.49   Q 297.65 530.16 296.57 532.95   Q 295.71 535.19 295.33 536.48   Q 294.40 539.59 292.38 542.63   A 1.39 1.33 62.2 0 0 292.17 543.36   Q 292.16 544.05 291.95 544.25   A 1.72 0.39 -38.1 0 0 291.33 545.01   Q 290.06 547.87 290.10 549.55   A 0.41 0.40 -8.1 0 1 289.79 549.95   Q 289.34 550.06 289.19 550.75   Q 288.23 554.92 286.84 558.38   Q 286.08 560.26 286.14 562.00   A 0.41 0.41 0.0 0 1 285.79 562.42   Q 285.71 562.44 285.67 562.45   A 0.73 0.73 0.0 0 0 285.15 563.09"/>
<path stroke="#bc93e6" d="   M 841.51 1032.25   C 855.08 1047.46 878.51 1048.97 896.07 1041.35   C 918.40 1031.65 926.71 1009.41 923.66 986.22   C 919.58 955.27 891.74 938.11 862.03 945.09   C 854.61 946.83 848.30 950.54 842.89 955.75   A 0.34 0.34 0.0 0 1 842.31 955.50   L 842.32 907.77   A 0.65 0.65 0.0 0 0 841.67 907.12   L 818.80 907.11   A 0.43 0.43 0.0 0 0 818.37 907.54   L 818.34 1043.57   A 0.54 0.54 0.0 0 0 818.88 1044.11   L 840.67 1044.11   A 0.54 0.53 -90.0 0 0 841.20 1043.57   L 841.20 1032.36   A 0.18 0.17 24.8 0 1 841.51 1032.25"/>
<path stroke="#bc93e6" d="   M 1090.29 1032.31   C 1103.87 1047.53 1127.31 1049.03 1144.88 1041.40   C 1167.22 1031.69 1175.53 1009.44 1172.47 986.24   C 1168.38 955.27 1140.53 938.11 1110.80 945.10   C 1103.38 946.84 1097.06 950.56 1091.65 955.77   A 0.34 0.34 0.0 0 1 1091.07 955.52   L 1091.07 907.76   A 0.65 0.65 0.0 0 0 1090.42 907.11   L 1067.54 907.11   A 0.43 0.43 0.0 0 0 1067.11 907.54   L 1067.11 1043.64   A 0.54 0.54 0.0 0 0 1067.65 1044.18   L 1089.45 1044.18   A 0.54 0.53 -90.0 0 0 1089.98 1043.64   L 1089.98 1032.42   A 0.18 0.17 24.8 0 1 1090.29 1032.31"/>
<path stroke="#bc93e6" d="   M 298.53 956.56   L 298.56 945.40   A 0.59 0.59 0.0 0 0 297.97 944.81   L 275.83 944.76   A 0.71 0.70 0.1 0 0 275.12 945.46   L 274.92 1043.60   A 0.46 0.45 0.1 0 0 275.37 1044.05   L 298.65 1044.10   A 0.50 0.50 0.0 0 0 299.15 1043.60   Q 299.19 1039.49 299.39 992.96   C 299.45 978.53 307.67 966.00 322.96 965.10   C 328.56 964.78 334.92 964.90 339.86 967.94   C 346.82 972.21 349.73 981.46 349.82 989.34   Q 350.05 1006.83 349.99 1043.46   A 0.69 0.68 -89.9 0 0 350.67 1044.15   L 373.48 1044.19   A 0.60 0.60 0.0 0 0 374.08 1043.60   Q 374.20 1003.03 374.25 988.37   C 374.31 973.39 370.59 959.89 358.23 951.07   C 350.20 945.34 341.22 943.55 331.25 943.61   Q 311.36 943.74 299.12 956.79   A 0.34 0.34 0.0 0 1 298.53 956.56"/>
<path stroke="#bc93e6" d="   M 400.31 999.67   Q 395.58 1005.48 395.76 1015.00   C 396.00 1027.01 401.15 1035.25 411.48 1040.73   Q 417.11 1043.72 423.37 1044.83   C 437.85 1047.38 455.56 1045.95 465.19 1033.37   A 0.31 0.31 0.0 0 1 465.75 1033.56   L 465.75 1043.58   A 0.63 0.63 0.0 0 0 466.38 1044.21   L 488.21 1044.21   A 0.50 0.49 -0.0 0 0 488.71 1043.72   Q 488.71 991.85 488.66 987.00   C 488.53 974.46 486.26 963.03 477.02 954.51   C 472.56 950.39 464.62 946.50 458.73 945.28   C 438.80 941.16 417.16 944.18 400.11 955.71   A 1.88 1.87 -31.2 0 0 399.51 958.14   L 407.67 973.32   A 0.71 0.70 58.8 0 0 408.68 973.57   Q 425.61 962.29 445.91 964.33   C 456.54 965.39 464.28 973.34 464.09 984.17   A 0.58 0.58 0.0 0 1 463.50 984.74   Q 454.45 984.57 438.01 984.70   Q 428.39 984.77 419.12 987.10   Q 408.14 989.86 401.13 998.37   Q 400.85 998.71 400.77 998.91   A 3.48 2.78 -20.2 0 1 400.31 999.67"/>
<path stroke="#bc93e6" d="   M 540.29 956.57   L 540.29 945.40   A 0.59 0.59 0.0 0 0 539.70 944.81   L 517.54 944.81   A 0.71 0.70 -0.0 0 0 516.83 945.51   L 516.83 1043.75   A 0.46 0.45 -0.0 0 0 517.29 1044.20   L 540.59 1044.20   A 0.50 0.50 0.0 0 0 541.09 1043.70   Q 541.12 1039.59 541.22 993.01   C 541.25 978.56 549.46 966.00 564.76 965.07   C 570.36 964.74 576.73 964.85 581.68 967.88   C 588.66 972.14 591.59 981.39 591.70 989.28   Q 591.96 1006.79 591.98 1043.45   A 0.69 0.68 90.0 0 0 592.66 1044.14   L 615.49 1044.14   A 0.60 0.60 0.0 0 0 616.09 1043.54   Q 616.13 1002.93 616.15 988.26   C 616.18 973.26 612.43 959.76 600.04 950.95   C 591.99 945.23 582.99 943.46 573.01 943.54   Q 553.10 943.71 540.88 956.80   A 0.34 0.34 0.0 0 1 540.29 956.57"/>
<path stroke="#bc93e6" d="   M 690.75 1045.85   C 718.85 1045.75 742.12 1028.11 744.03 998.75   Q 746.24 964.99 717.34 949.64   C 708.98 945.19 699.92 943.38 690.42 943.42   C 680.92 943.45 671.87 945.31 663.54 949.81   Q 634.74 965.36 637.17 999.10   C 639.28 1028.45 662.66 1045.94 690.75 1045.85"/>
<path stroke="#bc93e6" d="   M 937.91 994.35   C 937.72 1025.19 961.78 1045.70 991.47 1045.88   C 1021.15 1046.06 1045.46 1025.85 1045.65 995.01   C 1045.84 964.16 1021.78 943.66 992.09 943.47   C 962.41 943.29 938.10 963.50 937.91 994.35"/>
<path stroke="#bc93e6" d="   M 312.58 645.72   C 313.22 652.42 315.13 658.68 316.92 665.55   Q 323.28 689.95 338.61 713.14   Q 350.03 730.41 362.64 743.18   C 392.05 772.97 430.47 791.93 472.09 799.12   C 511.07 805.86 551.67 803.74 588.50 790.47   Q 612.37 781.86 633.17 769.16   Q 644.18 762.44 658.26 752.50   Q 665.08 747.68 669.74 743.45   C 673.21 740.29 677.07 737.59 681.64 733.65   C 703.34 714.91 723.27 694.86 742.74 674.74   Q 750.93 666.28 779.02 638.55   C 790.36 627.35 803.59 615.65 813.67 607.18   Q 835.56 588.81 857.17 575.19   Q 871.30 566.28 877.10 563.14   Q 901.14 550.16 925.35 541.66   Q 949.39 533.21 977.50 529.74   C 1003.57 526.52 1030.84 528.28 1056.30 535.66   Q 1090.69 545.63 1116.29 570.89   Q 1127.55 582.00 1134.67 594.37   A 0.41 0.41 0.0 0 0 1135.43 594.10   Q 1125.98 536.48 1084.83 495.64   Q 1050.20 461.26 1004.34 446.66   Q 941.74 426.73 876.69 441.93   C 844.66 449.41 815.59 462.46 788.02 480.60   C 782.24 484.40 777.53 488.32 772.45 491.89   Q 766.50 496.08 760.96 500.60   Q 736.08 520.88 714.74 543.00   Q 671.69 587.64 655.23 603.97   C 628.95 630.05 601.58 653.51 570.56 672.52   C 538.48 692.17 501.68 706.95 464.84 710.60   Q 436.27 713.43 408.96 708.58   C 372.81 702.17 340.22 684.40 318.67 654.84   Q 315.69 650.75 313.00 645.60   A 0.22 0.22 0.0 0 0 312.58 645.72"/>
<path stroke="#bc93e6" d="   M 402.64 517.01   Q 404.18 514.73 405.13 512.97   Q 410.79 502.58 419.85 490.61   C 422.24 487.44 424.96 486.26 429.05 484.29   Q 445.39 476.41 460.01 471.54   Q 480.54 464.68 502.32 462.36   A 0.27 0.26 28.8 0 1 502.47 462.86   Q 492.43 467.75 483.70 474.22   C 478.50 478.07 474.06 481.06 469.54 485.08   Q 439.23 512.03 426.04 548.99   C 411.67 589.26 416.32 630.12 437.14 667.66   Q 439.84 672.54 442.35 676.25   A 1.58 1.57 72.8 0 0 443.65 676.94   C 465.82 676.90 486.83 672.73 507.53 664.82   Q 519.96 660.07 521.93 659.16   Q 551.41 645.57 575.84 627.83   C 605.37 606.40 631.00 581.64 656.81 555.31   Q 684.32 527.23 689.80 521.30   Q 693.67 517.12 699.27 511.75   A 0.93 0.92 -45.8 0 0 699.26 510.40   Q 686.61 498.82 671.31 487.55   Q 655.49 475.90 641.00 468.03   C 590.51 440.63 533.95 429.62 477.01 438.54   Q 449.73 442.81 421.98 454.59   Q 415.10 457.52 406.69 462.26   Q 395.62 468.50 391.98 471.01   Q 382.47 477.55 375.31 483.60   Q 341.77 511.93 331.05 554.79   Q 322.84 587.62 336.81 616.99   C 349.33 643.29 371.75 661.63 400.16 670.25   A 0.24 0.24 0.0 0 0 400.44 669.91   Q 395.36 659.42 392.64 650.57   Q 385.50 627.33 384.31 601.63   C 383.93 593.20 384.57 586.48 384.97 578.16   A 3.35 3.20 -35.5 0 1 385.15 577.22   Q 385.33 576.71 385.35 576.50   Q 386.02 570.46 386.67 565.85   A 2.19 2.03 64.6 0 1 386.87 565.21   Q 387.21 564.49 387.45 563.20   Q 389.73 550.93 393.29 539.96   C 393.61 538.98 393.45 537.93 394.34 536.92   A 1.44 1.41 67.6 0 0 394.68 536.08   Q 394.71 535.52 394.79 535.32   Q 402.10 518.40 402.26 517.85   A 2.86 2.80 -21.2 0 1 402.64 517.01"/>
<path stroke="#bc93e6" d="   M 1102.06 723.28   Q 1103.56 720.72 1105.62 717.22   Q 1107.87 713.40 1108.81 711.32   C 1109.83 709.09 1110.69 706.51 1112.10 704.27   A 5.50 4.98 74.2 0 0 1112.54 703.38   Q 1118.59 687.54 1119.91 670.93   C 1122.29 640.83 1110.38 612.04 1087.59 592.31   C 1080.13 585.86 1070.07 579.45 1060.89 575.35   Q 1056.28 573.29 1047.43 569.92   A 0.35 0.35 0.0 0 0 1046.99 570.41   Q 1050.78 577.93 1053.49 585.77   Q 1068.87 630.18 1060.63 676.88   Q 1054.02 714.35 1031.66 746.14   Q 1028.70 750.33 1026.62 751.86   Q 1022.85 754.63 1016.02 757.51   Q 1000.95 763.86 988.45 768.25   Q 968.40 775.29 946.57 777.26   A 0.22 0.22 0.0 0 1 946.45 776.85   Q 956.35 772.10 963.98 766.46   C 971.79 760.69 977.26 757.31 982.71 751.78   Q 991.39 742.97 996.11 737.35   Q 1009.92 720.93 1019.28 699.17   Q 1020.70 695.87 1021.25 693.97   Q 1022.06 691.22 1023.14 688.72   Q 1024.35 685.94 1025.50 680.71   Q 1028.35 667.68 1028.63 665.49   Q 1034.53 619.99 1013.93 578.81   Q 1010.20 571.34 1005.61 564.66   A 2.47 2.43 -15.7 0 0 1003.68 563.60   Q 995.23 563.29 985.67 564.17   Q 961.34 566.41 937.14 574.67   Q 910.60 583.73 886.58 597.85   Q 865.78 610.07 849.98 622.01   Q 814.20 649.04 779.87 684.12   Q 767.75 696.50 748.97 715.96   A 0.30 0.30 0.0 0 0 748.96 716.37   C 754.10 722.08 758.57 726.17 765.63 732.60   Q 793.68 758.15 826.72 775.75   Q 881.80 805.09 943.28 802.76   C 963.42 801.99 984.82 799.11 1003.33 793.05   Q 1030.68 784.10 1054.96 769.18   Q 1055.27 768.99 1066.23 761.48   Q 1079.67 752.26 1090.26 739.99   C 1093.05 736.76 1095.58 732.90 1098.26 729.19   Q 1100.12 726.60 1102.06 723.28"/>
<path stroke="#bc93e6" d="   M 869.95 964.36   C 852.32 964.92 841.53 978.25 842.07 995.46   C 842.62 1012.67 854.22 1025.30 871.85 1024.74   C 889.48 1024.19 900.26 1010.85 899.72 993.64   C 899.18 976.43 887.57 963.81 869.95 964.36"/>
<path stroke="#bc93e6" d="   M 1118.88 964.42   C 1101.27 964.98 1090.50 978.30 1091.04 995.49   C 1091.58 1012.68 1103.17 1025.29 1120.78 1024.74   C 1138.39 1024.18 1149.17 1010.86 1148.62 993.67   C 1148.08 976.48 1136.49 963.87 1118.88 964.42"/>
<path stroke="#bc93e6" d="   M 464.12 1002.10   A 0.95 0.95 0.0 0 0 463.14 1001.18   Q 463.09 1001.18 437.44 1001.39   C 430.57 1001.45 423.30 1003.14 420.88 1010.12   Q 419.04 1015.41 422.07 1020.39   C 427.38 1029.10 440.83 1028.91 449.47 1025.97   Q 456.86 1023.47 461.07 1017.85   C 464.77 1012.93 464.32 1007.28 464.12 1002.10"/>
<path stroke="#bc93e6" d="   M 689.57 964.33   C 671.90 964.89 661.09 978.26 661.63 995.51   C 662.17 1012.76 673.81 1025.42 691.48 1024.86   C 709.15 1024.30 719.96 1010.94 719.42 993.69   C 718.87 976.44 707.24 963.78 689.57 964.33"/>
<path stroke="#bc93e6" d="   M 992.75 1024.87   C 1010.42 1024.32 1021.24 1010.95 1020.70 993.70   C 1020.16 976.45 1008.53 963.79 990.86 964.34   C 973.19 964.90 962.38 978.26 962.91 995.51   C 963.45 1012.76 975.08 1025.42 992.75 1024.87"/>
</g>
<path xmlns="http://www.w3.org/2000/svg" fill="#7827cd" d="   M 285.67 562.45   Q 285.71 562.44 285.79 562.42   A 0.41 0.41 0.0 0 0 286.14 562.00   Q 286.08 560.26 286.84 558.38   Q 288.23 554.92 289.19 550.75   Q 289.34 550.06 289.79 549.95   A 0.41 0.40 -8.1 0 0 290.10 549.55   Q 290.06 547.87 291.33 545.01   A 1.72 0.39 -38.1 0 1 291.95 544.25   Q 292.16 544.05 292.17 543.36   A 1.39 1.33 62.2 0 1 292.38 542.63   Q 294.40 539.59 295.33 536.48   Q 295.71 535.19 296.57 532.95   Q 297.65 530.16 297.99 529.49   Q 325.60 475.84 374.12 443.38   Q 382.80 437.57 395.47 430.88   Q 407.92 424.30 417.88 420.40   Q 468.83 400.49 524.26 402.52   Q 602.26 405.38 668.67 445.62   Q 698.90 463.93 724.06 487.85   A 0.64 0.63 46.1 0 0 724.91 487.87   C 732.80 481.13 740.14 474.55 748.71 468.14   C 766.15 455.09 784.33 442.47 803.77 433.57   C 809.04 431.16 813.57 428.54 818.56 426.40   C 881.83 399.19 953.94 394.10 1019.41 416.58   Q 1078.10 436.74 1119.34 483.65   Q 1133.32 499.55 1142.67 516.05   Q 1176.94 576.51 1169.49 645.26   C 1163.22 703.12 1131.79 755.37 1084.70 789.00   Q 1048.16 815.09 1004.89 826.65   C 972.91 835.19 939.79 837.99 906.80 834.45   Q 856.61 829.07 811.17 805.07   Q 785.27 791.40 762.55 773.47   C 750.12 763.65 736.71 752.56 725.10 740.65   A 1.25 1.25 0.0 0 0 723.34 740.63   Q 695.16 768.04 663.34 789.32   Q 648.90 798.98 627.80 809.54   C 580.11 833.42 525.10 840.86 472.26 832.69   C 419.33 824.49 370.72 801.12 333.95 761.83   C 301.20 726.83 280.04 680.93 277.56 632.75   Q 275.82 599.00 284.49 567.01   Q 284.97 565.23 285.15 563.09   A 0.73 0.73 0.0 0 1 285.67 562.45   Z   M 312.58 645.72   C 313.22 652.42 315.13 658.68 316.92 665.55   Q 323.28 689.95 338.61 713.14   Q 350.03 730.41 362.64 743.18   C 392.05 772.97 430.47 791.93 472.09 799.12   C 511.07 805.86 551.67 803.74 588.50 790.47   Q 612.37 781.86 633.17 769.16   Q 644.18 762.44 658.26 752.50   Q 665.08 747.68 669.74 743.45   C 673.21 740.29 677.07 737.59 681.64 733.65   C 703.34 714.91 723.27 694.86 742.74 674.74   Q 750.93 666.28 779.02 638.55   C 790.36 627.35 803.59 615.65 813.67 607.18   Q 835.56 588.81 857.17 575.19   Q 871.30 566.28 877.10 563.14   Q 901.14 550.16 925.35 541.66   Q 949.39 533.21 977.50 529.74   C 1003.57 526.52 1030.84 528.28 1056.30 535.66   Q 1090.69 545.63 1116.29 570.89   Q 1127.55 582.00 1134.67 594.37   A 0.41 0.41 0.0 0 0 1135.43 594.10   Q 1125.98 536.48 1084.83 495.64   Q 1050.20 461.26 1004.34 446.66   Q 941.74 426.73 876.69 441.93   C 844.66 449.41 815.59 462.46 788.02 480.60   C 782.24 484.40 777.53 488.32 772.45 491.89   Q 766.50 496.08 760.96 500.60   Q 736.08 520.88 714.74 543.00   Q 671.69 587.64 655.23 603.97   C 628.95 630.05 601.58 653.51 570.56 672.52   C 538.48 692.17 501.68 706.95 464.84 710.60   Q 436.27 713.43 408.96 708.58   C 372.81 702.17 340.22 684.40 318.67 654.84   Q 315.69 650.75 313.00 645.60   A 0.22 0.22 0.0 0 0 312.58 645.72   Z   M 402.64 517.01   Q 404.18 514.73 405.13 512.97   Q 410.79 502.58 419.85 490.61   C 422.24 487.44 424.96 486.26 429.05 484.29   Q 445.39 476.41 460.01 471.54   Q 480.54 464.68 502.32 462.36   A 0.27 0.26 28.8 0 1 502.47 462.86   Q 492.43 467.75 483.70 474.22   C 478.50 478.07 474.06 481.06 469.54 485.08   Q 439.23 512.03 426.04 548.99   C 411.67 589.26 416.32 630.12 437.14 667.66   Q 439.84 672.54 442.35 676.25   A 1.58 1.57 72.8 0 0 443.65 676.94   C 465.82 676.90 486.83 672.73 507.53 664.82   Q 519.96 660.07 521.93 659.16   Q 551.41 645.57 575.84 627.83   C 605.37 606.40 631.00 581.64 656.81 555.31   Q 684.32 527.23 689.80 521.30   Q 693.67 517.12 699.27 511.75   A 0.93 0.92 -45.8 0 0 699.26 510.40   Q 686.61 498.82 671.31 487.55   Q 655.49 475.90 641.00 468.03   C 590.51 440.63 533.95 429.62 477.01 438.54   Q 449.73 442.81 421.98 454.59   Q 415.10 457.52 406.69 462.26   Q 395.62 468.50 391.98 471.01   Q 382.47 477.55 375.31 483.60   Q 341.77 511.93 331.05 554.79   Q 322.84 587.62 336.81 616.99   C 349.33 643.29 371.75 661.63 400.16 670.25   A 0.24 0.24 0.0 0 0 400.44 669.91   Q 395.36 659.42 392.64 650.57   Q 385.50 627.33 384.31 601.63   C 383.93 593.20 384.57 586.48 384.97 578.16   A 3.35 3.20 -35.5 0 1 385.15 577.22   Q 385.33 576.71 385.35 576.50   Q 386.02 570.46 386.67 565.85   A 2.19 2.03 64.6 0 1 386.87 565.21   Q 387.21 564.49 387.45 563.20   Q 389.73 550.93 393.29 539.96   C 393.61 538.98 393.45 537.93 394.34 536.92   A 1.44 1.41 67.6 0 0 394.68 536.08   Q 394.71 535.52 394.79 535.32   Q 402.10 518.40 402.26 517.85   A 2.86 2.80 -21.2 0 1 402.64 517.01   Z   M 1102.06 723.28   Q 1103.56 720.72 1105.62 717.22   Q 1107.87 713.40 1108.81 711.32   C 1109.83 709.09 1110.69 706.51 1112.10 704.27   A 5.50 4.98 74.2 0 0 1112.54 703.38   Q 1118.59 687.54 1119.91 670.93   C 1122.29 640.83 1110.38 612.04 1087.59 592.31   C 1080.13 585.86 1070.07 579.45 1060.89 575.35   Q 1056.28 573.29 1047.43 569.92   A 0.35 0.35 0.0 0 0 1046.99 570.41   Q 1050.78 577.93 1053.49 585.77   Q 1068.87 630.18 1060.63 676.88   Q 1054.02 714.35 1031.66 746.14   Q 1028.70 750.33 1026.62 751.86   Q 1022.85 754.63 1016.02 757.51   Q 1000.95 763.86 988.45 768.25   Q 968.40 775.29 946.57 777.26   A 0.22 0.22 0.0 0 1 946.45 776.85   Q 956.35 772.10 963.98 766.46   C 971.79 760.69 977.26 757.31 982.71 751.78   Q 991.39 742.97 996.11 737.35   Q 1009.92 720.93 1019.28 699.17   Q 1020.70 695.87 1021.25 693.97   Q 1022.06 691.22 1023.14 688.72   Q 1024.35 685.94 1025.50 680.71   Q 1028.35 667.68 1028.63 665.49   Q 1034.53 619.99 1013.93 578.81   Q 1010.20 571.34 1005.61 564.66   A 2.47 2.43 -15.7 0 0 1003.68 563.60   Q 995.23 563.29 985.67 564.17   Q 961.34 566.41 937.14 574.67   Q 910.60 583.73 886.58 597.85   Q 865.78 610.07 849.98 622.01   Q 814.20 649.04 779.87 684.12   Q 767.75 696.50 748.97 715.96   A 0.30 0.30 0.0 0 0 748.96 716.37   C 754.10 722.08 758.57 726.17 765.63 732.60   Q 793.68 758.15 826.72 775.75   Q 881.80 805.09 943.28 802.76   C 963.42 801.99 984.82 799.11 1003.33 793.05   Q 1030.68 784.10 1054.96 769.18   Q 1055.27 768.99 1066.23 761.48   Q 1079.67 752.26 1090.26 739.99   C 1093.05 736.76 1095.58 732.90 1098.26 729.19   Q 1100.12 726.60 1102.06 723.28   Z"/>
<path xmlns="http://www.w3.org/2000/svg" fill="#7827cd" d="   M 841.51 1032.25   A 0.18 0.17 24.8 0 0 841.20 1032.36   L 841.20 1043.57   A 0.54 0.53 -90.0 0 1 840.67 1044.11   L 818.88 1044.11   A 0.54 0.54 0.0 0 1 818.34 1043.57   L 818.37 907.54   A 0.43 0.43 0.0 0 1 818.80 907.11   L 841.67 907.12   A 0.65 0.65 0.0 0 1 842.32 907.77   L 842.31 955.50   A 0.34 0.34 0.0 0 0 842.89 955.75   C 848.30 950.54 854.61 946.83 862.03 945.09   C 891.74 938.11 919.58 955.27 923.66 986.22   C 926.71 1009.41 918.40 1031.65 896.07 1041.35   C 878.51 1048.97 855.08 1047.46 841.51 1032.25   Z   M 869.95 964.36   C 852.32 964.92 841.53 978.25 842.07 995.46   C 842.62 1012.67 854.22 1025.30 871.85 1024.74   C 889.48 1024.19 900.26 1010.85 899.72 993.64   C 899.18 976.43 887.57 963.81 869.95 964.36   Z"/>
<path xmlns="http://www.w3.org/2000/svg" fill="#7827cd" d="   M 1090.29 1032.31   A 0.18 0.17 24.8 0 0 1089.98 1032.42   L 1089.98 1043.64   A 0.54 0.53 -90.0 0 1 1089.45 1044.18   L 1067.65 1044.18   A 0.54 0.54 0.0 0 1 1067.11 1043.64   L 1067.11 907.54   A 0.43 0.43 0.0 0 1 1067.54 907.11   L 1090.42 907.11   A 0.65 0.65 0.0 0 1 1091.07 907.76   L 1091.07 955.52   A 0.34 0.34 0.0 0 0 1091.65 955.77   C 1097.06 950.56 1103.38 946.84 1110.80 945.10   C 1140.53 938.11 1168.38 955.27 1172.47 986.24   C 1175.53 1009.44 1167.22 1031.69 1144.88 1041.40   C 1127.31 1049.03 1103.87 1047.53 1090.29 1032.31   Z   M 1118.88 964.42   C 1101.27 964.98 1090.50 978.30 1091.04 995.49   C 1091.58 1012.68 1103.17 1025.29 1120.78 1024.74   C 1138.39 1024.18 1149.17 1010.86 1148.62 993.67   C 1148.08 976.48 1136.49 963.87 1118.88 964.42   Z"/>
<path xmlns="http://www.w3.org/2000/svg" fill="#7827cd" d="   M 298.53 956.56   A 0.34 0.34 0.0 0 0 299.12 956.79   Q 311.36 943.74 331.25 943.61   C 341.22 943.55 350.20 945.34 358.23 951.07   C 370.59 959.89 374.31 973.39 374.25 988.37   Q 374.20 1003.03 374.08 1043.60   A 0.60 0.60 0.0 0 1 373.48 1044.19   L 350.67 1044.15   A 0.69 0.68 -89.9 0 1 349.99 1043.46   Q 350.05 1006.83 349.82 989.34   C 349.73 981.46 346.82 972.21 339.86 967.94   C 334.92 964.90 328.56 964.78 322.96 965.10   C 307.67 966.00 299.45 978.53 299.39 992.96   Q 299.19 1039.49 299.15 1043.60   A 0.50 0.50 0.0 0 1 298.65 1044.10   L 275.37 1044.05   A 0.46 0.45 0.1 0 1 274.92 1043.60   L 275.12 945.46   A 0.71 0.70 0.1 0 1 275.83 944.76   L 297.97 944.81   A 0.59 0.59 0.0 0 1 298.56 945.40   L 298.53 956.56   Z"/>
<path xmlns="http://www.w3.org/2000/svg" fill="#7827cd" d="   M 400.77 998.91   Q 400.85 998.71 401.13 998.37   Q 408.14 989.86 419.12 987.10   Q 428.39 984.77 438.01 984.70   Q 454.45 984.57 463.50 984.74   A 0.58 0.58 0.0 0 0 464.09 984.17   C 464.28 973.34 456.54 965.39 445.91 964.33   Q 425.61 962.29 408.68 973.57   A 0.71 0.70 58.8 0 1 407.67 973.32   L 399.51 958.14   A 1.88 1.87 -31.2 0 1 400.11 955.71   C 417.16 944.18 438.80 941.16 458.73 945.28   C 464.62 946.50 472.56 950.39 477.02 954.51   C 486.26 963.03 488.53 974.46 488.66 987.00   Q 488.71 991.85 488.71 1043.72   A 0.50 0.49 0.0 0 1 488.21 1044.21   L 466.38 1044.21   A 0.63 0.63 0.0 0 1 465.75 1043.58   L 465.75 1033.56   A 0.31 0.31 0.0 0 0 465.19 1033.37   C 455.56 1045.95 437.85 1047.38 423.37 1044.83   Q 417.11 1043.72 411.48 1040.73   C 401.15 1035.25 396.00 1027.01 395.76 1015.00   Q 395.58 1005.48 400.31 999.67   A 3.48 2.78 -20.2 0 0 400.77 998.91   Z   M 464.12 1002.10   A 0.95 0.95 0.0 0 0 463.14 1001.18   Q 463.09 1001.18 437.44 1001.39   C 430.57 1001.45 423.30 1003.14 420.88 1010.12   Q 419.04 1015.41 422.07 1020.39   C 427.38 1029.10 440.83 1028.91 449.47 1025.97   Q 456.86 1023.47 461.07 1017.85   C 464.77 1012.93 464.32 1007.28 464.12 1002.10   Z"/>
<path xmlns="http://www.w3.org/2000/svg" fill="#7827cd" d="   M 540.88 956.80   Q 553.10 943.71 573.01 943.54   C 582.99 943.46 591.99 945.23 600.04 950.95   C 612.43 959.76 616.18 973.26 616.15 988.26   Q 616.13 1002.93 616.09 1043.54   A 0.60 0.60 0.0 0 1 615.49 1044.14   L 592.66 1044.14   A 0.69 0.68 -90.0 0 1 591.98 1043.45   Q 591.96 1006.79 591.70 989.28   C 591.59 981.39 588.66 972.14 581.68 967.88   C 576.73 964.85 570.36 964.74 564.76 965.07   C 549.46 966.00 541.25 978.56 541.22 993.01   Q 541.12 1039.59 541.09 1043.70   A 0.50 0.50 0.0 0 1 540.59 1044.20   L 517.29 1044.20   A 0.46 0.45 -0.0 0 1 516.83 1043.75   L 516.83 945.51   A 0.71 0.70 -0.0 0 1 517.54 944.81   L 539.70 944.81   A 0.59 0.59 0.0 0 1 540.29 945.40   L 540.29 956.57   A 0.34 0.34 0.0 0 0 540.88 956.80   Z"/>
<path xmlns="http://www.w3.org/2000/svg" fill="#7827cd" d="   M 690.42 943.42   C 699.92 943.38 708.98 945.19 717.34 949.64   Q 746.24 964.99 744.03 998.75   C 742.12 1028.11 718.85 1045.75 690.75 1045.85   C 662.66 1045.94 639.28 1028.45 637.17 999.10   Q 634.74 965.36 663.54 949.81   C 671.87 945.31 680.92 943.45 690.42 943.42   Z   M 689.57 964.33   C 671.90 964.89 661.09 978.26 661.63 995.51   C 662.17 1012.76 673.81 1025.42 691.48 1024.86   C 709.15 1024.30 719.96 1010.94 719.42 993.69   C 718.87 976.44 707.24 963.78 689.57 964.33   Z"/>
<path xmlns="http://www.w3.org/2000/svg" fill="#7827cd" d="   M 992.09 943.47   C 1021.78 943.66 1045.84 964.16 1045.65 995.01   C 1045.46 1025.85 1021.15 1046.06 991.47 1045.88   C 961.78 1045.70 937.72 1025.19 937.91 994.35   C 938.10 963.50 962.41 943.29 992.09 943.47   Z   M 992.75 1024.87   C 1010.42 1024.32 1021.24 1010.95 1020.70 993.70   C 1020.16 976.45 1008.53 963.79 990.86 964.34   C 973.19 964.90 962.38 978.26 962.91 995.51   C 963.45 1012.76 975.08 1025.42 992.75 1024.87   Z"/>
</g></g></g></svg>